<?xml version="1.0" encoding="utf-8"?>
<!-- Generator: Adobe Illustrator 26.3.1, SVG Export Plug-In . SVG Version: 6.00 Build 0)  -->
<svg version="1.1" id="Layer_1" xmlns="http://www.w3.org/2000/svg" xmlns:xlink="http://www.w3.org/1999/xlink" x="0px" y="0px"
	 width="24px" height="24px" viewBox="0 0 24 24" style="enable-background:new 0 0 24 24;" xml:space="preserve">
<style type="text/css">
	.st0{fill-rule:evenodd;clip-rule:evenodd;fill:#0F0F0F;}
	.st1{fill:#0F0F0F;}
</style>
<g id="SVGRepo_iconCarrier">
	<path class="st0" d="M12.2,18.5c3.3,0,6-2.7,6-6c0-3.3-2.7-6-6-6c-3.3,0-6,2.7-6,6C6.2,15.8,8.9,18.5,12.2,18.5z M12.2,16.5
		c2.2,0,4-1.8,4-4c0-2.2-1.8-4-4-4c-2.2,0-4,1.8-4,4C8.2,14.7,10,16.5,12.2,16.5z"/>
	<path class="st1" d="M18.2,5.5c-0.6,0-1,0.4-1,1s0.4,1,1,1s1-0.4,1-1S18.8,5.5,18.2,5.5z"/>
	<path class="st0" d="M1.9,4.8c-0.7,1.3-0.7,3-0.7,6.3v2.8c0,3.4,0,5,0.7,6.3c0.6,1.1,1.5,2,2.6,2.6c1.3,0.7,3,0.7,6.3,0.7h2.8
		c3.4,0,5,0,6.3-0.7c1.1-0.6,2-1.5,2.6-2.6c0.7-1.3,0.7-3,0.7-6.3v-2.8c0-3.4,0-5-0.7-6.3c-0.6-1.1-1.5-2-2.6-2.6
		c-1.3-0.7-3-0.7-6.3-0.7h-2.8c-3.4,0-5,0-6.3,0.7C3.4,2.7,2.5,3.6,1.9,4.8z M13.6,3.5h-2.8c-1.7,0-2.9,0-3.8,0.1
		C6.2,3.6,5.7,3.8,5.4,3.9C4.7,4.3,4,4.9,3.7,5.7C3.5,6,3.4,6.4,3.3,7.3c-0.1,0.9-0.1,2.1-0.1,3.8v2.8c0,1.7,0,2.9,0.1,3.8
		c0.1,0.9,0.2,1.3,0.4,1.6c0.4,0.8,1,1.4,1.7,1.7c0.3,0.2,0.8,0.3,1.6,0.4c0.9,0.1,2.1,0.1,3.8,0.1h2.8c1.7,0,2.9,0,3.8-0.1
		c0.9-0.1,1.3-0.2,1.6-0.4c0.8-0.4,1.4-1,1.7-1.7c0.2-0.3,0.3-0.8,0.4-1.6c0.1-0.9,0.1-2.1,0.1-3.8v-2.8c0-1.7,0-2.9-0.1-3.8
		c-0.1-0.9-0.2-1.3-0.4-1.6c-0.4-0.8-1-1.4-1.7-1.7c-0.3-0.2-0.8-0.3-1.6-0.4C16.5,3.5,15.3,3.5,13.6,3.5z"/>
</g>
</svg>
