<?xml version="1.0" encoding="utf-8"?>
<!-- Generator: Adobe Illustrator 26.3.1, SVG Export Plug-In . SVG Version: 6.00 Build 0)  -->
<svg version="1.1" id="Layer_1" xmlns="http://www.w3.org/2000/svg" xmlns:xlink="http://www.w3.org/1999/xlink" x="0px" y="0px"
	 width="24px" height="24px" viewBox="0 0 24 24" style="enable-background:new 0 0 24 24;" xml:space="preserve">
<style type="text/css">
	.st0{fill:#0F0F0F;}
	.st1{fill-rule:evenodd;clip-rule:evenodd;fill:#0F0F0F;}
</style>
<g id="SVGRepo_iconCarrier">
	<path class="st0" d="M6.5,8.4C7.3,8.4,8,7.7,8,6.9S7.3,5.4,6.5,5.4S5,6,5,6.9S5.7,8.4,6.5,8.4z"/>
	<path class="st0" d="M5,10.4c0-0.6,0.4-1,1-1h1c0.6,0,1,0.4,1,1v8c0,0.6-0.4,1-1,1H6c-0.6,0-1-0.4-1-1V10.4z"/>
	<path class="st0" d="M11,19.4h1c0.6,0,1-0.4,1-1v-4.5c0-1.5,3-2.5,3-0.5v5c0,0.6,0.4,1,1,1h1c0.6,0,1-0.4,1-1v-6c0-2-1.5-3-3.5-3
		S13,10.9,13,10.9v-0.5c0-0.6-0.4-1-1-1h-1c-0.6,0-1,0.4-1,1v8C10,18.9,10.4,19.4,11,19.4z"/>
	<path class="st1" d="M20,1.4c1.7,0,3,1.3,3,3v16c0,1.7-1.3,3-3,3H4c-1.7,0-3-1.3-3-3v-16c0-1.7,1.3-3,3-3H20z M20,3.4
		c0.6,0,1,0.4,1,1v16c0,0.6-0.4,1-1,1H4c-0.6,0-1-0.4-1-1v-16c0-0.6,0.4-1,1-1H20z"/>
</g>
</svg>
