<?xml version="1.0" encoding="utf-8"?>
<!-- Generator: Adobe Illustrator 26.3.1, SVG Export Plug-In . SVG Version: 6.00 Build 0)  -->
<svg version="1.1" id="Layer_1" xmlns="http://www.w3.org/2000/svg" xmlns:xlink="http://www.w3.org/1999/xlink" x="0px" y="0px"
	 width="24px" height="24px" viewBox="0 0 24 24" style="enable-background:new 0 0 24 24;" xml:space="preserve">
<style type="text/css">
	.st0{fill:#0F0F0F;}
	.st1{fill-rule:evenodd;clip-rule:evenodd;fill:#0F0F0F;}
</style>
<g id="SVGRepo_iconCarrier">
	<path class="st0" d="M8.2,7v5c0,0.6-0.4,1-1,1s-1-0.4-1-1V7c0-1.9,1.8-3,3.5-3c1.1,0,1.9,0.3,2.5,0.8C12.7,4.4,13.5,4,14.7,4
		c1.7,0,3.5,1.1,3.5,3v5c0,0.6-0.4,1-1,1s-1-0.4-1-1V7c-0.1-0.8-0.8-1-1.5-1c-0.6,0-1.4,0.2-1.5,1v3c0,0.6-0.4,1-1,1s-1-0.4-1-1V7
		c-0.1-0.8-0.8-1-1.5-1C9,6,8.2,6.3,8.2,7z"/>
	<path class="st1" d="M16.2,1h-8c-3.9,0-6.9,3-7,7v5c0,5.1,3.6,10,9,10h5.5c1.4,0,2.5-1.1,2.5-2.5c0-1.4-1.1-2.4-2.5-2.5
		c-0.3,0-0.6,0-1,0c-2.1,0-5.2,0.1-6.2-1.7c4.5,0.8,14.7,2.2,14.7-5.3V8C23.1,4.1,20.1,1,16.2,1z M3.2,13V8c0.1-2.9,2.1-5,5-5h8
		c2.9,0,4.9,2.1,5,5v3c0,6-10.7,3.8-13.8,3c-0.6-0.2-1.2,0.3-1.2,1c0,1.1,0.3,2,0.9,2.8c1.7,2.1,5,2.2,7.7,2.2c0.3,0,0.7,0,1,0
		c0.3,0,0.5,0.2,0.5,0.5c0,0.3-0.2,0.5-0.5,0.5h-5.5C5.8,21,3.2,17,3.2,13z"/>
</g>
</svg>
