<?xml version="1.0" encoding="utf-8"?>
<!-- Generator: Adobe Illustrator 26.3.1, SVG Export Plug-In . SVG Version: 6.00 Build 0)  -->
<svg version="1.1" id="Layer_1" xmlns="http://www.w3.org/2000/svg" xmlns:xlink="http://www.w3.org/1999/xlink" x="0px" y="0px"
	 width="24px" height="24px" viewBox="0 0 24 24" style="enable-background:new 0 0 24 24;" xml:space="preserve">
<style type="text/css">
	.st0{fill:none;stroke:#000000;stroke-linecap:round;stroke-linejoin:round;}
</style>
<g id="SVGRepo_iconCarrier">
	<path class="st0" d="M12,18.9v1.8h7.9c1.5,0,2.8-1.2,2.8-2.8c0-1.5-1.2-2.8-2.8-2.8c-0.3,0-0.6,0.1-0.9,0.1c0,0,0-0.1,0-0.1
		c0-2.5-2-4.5-4.5-4.5c-0.9,0-1.7,0.3-2.5,0.7l0,0V18.9z"/>
	<line class="st0" x1="1.3" y1="15.9" x2="1.3" y2="19.4"/>
	<line class="st0" x1="2.8" y1="14.6" x2="2.8" y2="20.3"/>
	<line class="st0" x1="4.4" y1="15" x2="4.4" y2="20.7"/>
	<line class="st0" x1="5.9" y1="20.7" x2="5.9" y2="13.4"/>
	<line class="st0" x1="7.4" y1="12.9" x2="7.4" y2="20.7"/>
	<line class="st0" x1="8.9" y1="20.7" x2="8.9" y2="13.4"/>
	<line class="st0" x1="10.4" y1="12.4" x2="10.4" y2="20.7"/>
</g>
</svg>
