<?xml version="1.0" encoding="utf-8"?>
<!-- Generator: Adobe Illustrator 26.3.1, SVG Export Plug-In . SVG Version: 6.00 Build 0)  -->
<svg version="1.1" id="Layer_1" xmlns="http://www.w3.org/2000/svg" xmlns:xlink="http://www.w3.org/1999/xlink" x="0px" y="0px"
	 width="24px" height="24px" viewBox="0 0 24 24" style="enable-background:new 0 0 24 24;" xml:space="preserve">
<style type="text/css">
	.st0{clip-path:url(#SVGID_00000181772597831951307030000017511737315185540482_);}
</style>
<g id="SVGRepo_iconCarrier">
	<g>
		<defs>
			<rect id="SVGID_1_" x="2.2" y="1.8" width="20.9" height="21.6"/>
		</defs>
		<clipPath id="SVGID_00000083781817164905810770000010283009933593047983_">
			<use xlink:href="#SVGID_1_"  style="overflow:visible;"/>
		</clipPath>
		<g style="clip-path:url(#SVGID_00000083781817164905810770000010283009933593047983_);">
			<path d="M18.6,8.9c1.1,0.4,2,0.5,2.8,0.4c1.1-0.1,1.6-0.7,1.6-1.8c0-0.5,0-1,0-1.5c0-0.1,0-0.3,0-0.4c0-0.2-0.1-0.3-0.1-0.4
				c-0.1-0.1-0.2-0.2-0.4-0.2c-0.2-0.1-0.4-0.1-0.6-0.1c-2.2-0.4-3.9-1.3-5.2-2.6c-0.2-0.2-0.5-0.4-0.8-0.4h0c-0.7,0-1.3,0.1-2,0.1
				l-0.3,0c-0.4,0-0.6,0.3-0.6,0.7c0,0.2,0,0.3,0,0.5c0,0.9,0,1.8,0,2.7c0,2.2,0,4.4,0,6.6c0,1-0.1,2.1-0.2,3.1
				c0,0.3-0.1,0.5-0.2,0.7c-0.1,0.2-0.3,0.4-0.5,0.6c-0.2,0.2-0.5,0.3-0.7,0.4c-0.3,0.1-0.6,0.1-0.8,0c-1.1-0.1-1.7-0.8-1.9-2.1
				c-0.1-0.7,0-1.4,0.4-1.9c0.4-0.5,0.9-0.8,1.6-0.9c0.6-0.1,0.8-0.3,0.8-1c-0.1-0.6-0.1-1.1-0.2-1.7C11,9.6,11,9.2,10.9,8.8
				c0-0.4-0.3-0.6-0.7-0.6c-0.2,0-0.5,0-0.7,0c-3,0.4-5.2,1.9-6.5,4.6c-1,1.9-1.1,4.1-0.3,6c0.7,1.8,2.2,3.2,4.2,3.9
				c1.2,0.4,2.5,0.7,3.7,0.7c1.4,0,2.8-0.3,4.2-0.8c1.7-0.6,2.7-1.9,2.9-3.7c0.4-2.6,0.4-4.8,0.2-6.9c-0.1-0.8-0.1-1.5-0.2-2.3
				c0-0.3,0-0.7,0-1c0.1,0,0.2,0.1,0.3,0.1C18.2,8.8,18.4,8.8,18.6,8.9z M16.2,9.6c0,1.5,0,3.1,0,4.6l0,0.1c0,1.4,0,2.8-0.3,4.2
				c-0.2,1.3-0.9,2.1-2,2.5c-2.4,0.8-4.5,0.8-6.7,0c-2.9-1.1-3.8-3.8-3.4-6c0.6-2.9,2.2-4.7,4.9-5.5C9,9.5,9.3,9.4,9.6,9.3
				c0.1,0,0.2,0,0.2,0c0,0,0.1,0,0.1,0l0.1,2.1c0,0-0.1,0-0.1,0c-0.1,0-0.1,0.1-0.2,0.1c-1.9,0.4-3,2.2-2.6,4.4
				c0.1,0.6,0.4,1.2,0.8,1.7c0.4,0.5,0.9,0.9,1.5,1.1c0.6,0.2,1.3,0.3,2,0.2c0.7-0.1,1.3-0.4,1.8-0.8c0.7-0.6,1.1-1.4,1-2.2
				c-0.1-0.9,0-1.9,0-2.8c0-0.6,0.1-1.2,0.1-1.8c0-1.5,0-3.1,0-4.6c0-0.7,0-1.4,0-2.2c0-0.3,0-0.5,0-0.8V3.4c0.3-0.1,0.7-0.1,1-0.1
				c0.1,0,0.2,0,0.4,0h0l0.1,0.1c1.3,1.3,1.6,1.6,5.7,2.9l-0.1,1.2c0,0,0,0-0.1,0c0,0-0.1,0-0.1,0c-1.2-0.1-2.6-0.3-3.9-1
				c-0.2-0.1-0.4-0.2-0.6-0.2c-0.1,0-0.2-0.1-0.3-0.1c0,0,0,0,0,0c0,0,0,0,0,0c0,0,0,0,0,0c0,0,0,0,0,0c0,0.1,0,0.2,0,0.3
				c0,0.2,0,0.3-0.1,0.5C16.2,8,16.2,8.8,16.2,9.6L16.2,9.6z"/>
		</g>
	</g>
</g>
</svg>
