<?xml version="1.0" encoding="utf-8"?>
<!-- Generator: Adobe Illustrator 26.3.1, SVG Export Plug-In . SVG Version: 6.00 Build 0)  -->
<svg version="1.1" id="Layer_1" xmlns="http://www.w3.org/2000/svg" xmlns:xlink="http://www.w3.org/1999/xlink" x="0px" y="0px"
	 width="24px" height="24px" viewBox="0 0 24 24" style="enable-background:new 0 0 24 24;" xml:space="preserve">
<style type="text/css">
	.st0{fill-rule:evenodd;clip-rule:evenodd;fill:#0F0F0F;}
</style>
<g id="SVGRepo_iconCarrier_00000021102831594371827680000009582604071426435764_">
	<path class="st0" d="M20.1,4.5c0.4-0.1,0.6-0.2,0.8-0.3c0.3-0.1,0.5-0.3,0.9-0.5c0.3-0.2,0.7-0.2,1.1,0c0.3,0.2,0.5,0.5,0.5,0.9
		c0,1.1-0.1,2-0.5,2.8c-0.3,0.7-0.6,1.2-1.1,1.7c-0.2,3.5-1.2,6.2-2.7,8.2c-1.6,2.1-3.7,3.5-5.9,4.3c-2.2,0.8-4.6,0.9-6.7,0.7
		c-2.1-0.3-4-0.9-5.4-2c-0.4-0.3-0.5-0.8-0.3-1.2c0.2-0.4,0.6-0.7,1.1-0.6c1.3,0.2,2.6-0.1,3.6-0.5c-0.2-0.1-0.4-0.2-0.6-0.4
		c-1-0.7-1.7-1.6-2.1-2.2c-0.1-0.3-0.1-0.6,0-0.9c0.1-0.1,0.2-0.3,0.3-0.4c-1.4-1.1-2-2.7-2-3.8c0-0.3,0.1-0.6,0.4-0.8
		C1.8,9.4,2,9.3,2.1,9.3C2,9,1.9,8.7,1.8,8.4c-0.3-1.3-0.2-2.8,0-4C2,4,2.3,3.7,2.7,3.6c0.4-0.1,0.8,0.1,1,0.5
		c1.1,1.9,3.1,3.1,5,3.8c0.9,0.3,1.7,0.5,2.3,0.7c0.1-1.3,0.5-2.3,1-3.1c0.7-1.1,1.7-1.7,2.8-2C16.8,3,18.8,3.5,20.1,4.5z
		 M10.8,10.6c-0.7-0.1-1.7-0.4-2.7-0.8c-1.4-0.5-3-1.3-4.4-2.5c0,0.2,0.1,0.5,0.1,0.7c0.2,1.1,0.6,1.7,1,1.9
		c0.5,0.2,0.7,0.8,0.5,1.3c-0.2,0.7-0.9,0.7-1.5,0.6c0.5,0.7,1.3,1.4,2.7,1.7c0.5,0.1,0.9,0.5,0.9,1c0,0.5-0.3,0.9-0.8,1l-0.9,0.2
		c0.1,0.1,0.3,0.2,0.4,0.3c0.7,0.5,1.4,0.7,2.1,0.6c0.5-0.1,0.9,0.1,1.2,0.5c0.2,0.4,0.1,0.9-0.3,1.3c-0.7,0.6-1.4,1-2.2,1.4
		c-0.4,0.2-0.8,0.3-1.2,0.5c0.3,0.1,0.7,0.1,1.1,0.2c1.8,0.2,3.8,0.1,5.7-0.6c1.9-0.6,3.6-1.8,4.9-3.5c1.3-1.8,2.2-4.2,2.3-7.5
		c0-0.3,0.1-0.5,0.3-0.7c0.5-0.5,0.8-1,1-1.6c-0.3,0.1-0.7,0.2-1.1,0.3c-0.3,0.1-0.7,0-0.9-0.3c-0.8-0.8-2.3-1.3-3.6-1
		c-0.6,0.2-1.2,0.5-1.6,1.2c-0.4,0.6-0.7,1.7-0.7,3.2c0,0.3-0.1,0.6-0.3,0.8C12.3,11,11.4,10.7,10.8,10.6z"/>
</g>
</svg>
