<?xml version="1.0" encoding="utf-8"?>
<!-- Generator: Adobe Illustrator 26.3.1, SVG Export Plug-In . SVG Version: 6.00 Build 0)  -->
<svg version="1.1" id="Layer_1" xmlns="http://www.w3.org/2000/svg" xmlns:xlink="http://www.w3.org/1999/xlink" x="0px" y="0px"
	 width="24px" height="24px" viewBox="0 0 24 24" style="enable-background:new 0 0 24 24;" xml:space="preserve">
<style type="text/css">
	.st0{fill-rule:evenodd;clip-rule:evenodd;fill:#0F0F0F;}
</style>
<g id="SVGRepo_iconCarrier">
	<path class="st0" d="M9.5,8.4c-0.3-0.2-0.7-0.2-1,0C8.2,8.5,8,8.8,8,9.2v7.8c0,0.3,0.2,0.7,0.5,0.8c0.3,0.2,0.7,0.2,1,0l6.8-3.9
		c0.3-0.2,0.5-0.5,0.5-0.8s-0.2-0.7-0.5-0.8L9.5,8.4z M13.8,13.1L10,15.3v-4.4L13.8,13.1z"/>
	<path class="st0" d="M0.3,13.1c0-3.6,0-5.5,0.9-6.7c0.3-0.4,0.7-0.8,1.1-1.1C3.5,4.3,5.4,4.3,9,4.3h5.8c3.6,0,5.5,0,6.7,0.9
		c0.4,0.3,0.8,0.7,1.1,1.1c0.9,1.3,0.9,3.1,0.9,6.7c0,3.6,0,5.5-0.9,6.7c-0.3,0.4-0.7,0.8-1.1,1.1c-1.3,0.9-3.1,0.9-6.7,0.9H9
		c-3.6,0-5.5,0-6.7-0.9c-0.4-0.3-0.8-0.7-1.1-1.1C0.3,18.5,0.3,16.7,0.3,13.1z M9,6.3h5.8c1.9,0,3.1,0,4,0.1
		c0.9,0.1,1.3,0.3,1.5,0.5C20.6,7,20.9,7.2,21,7.5c0.2,0.3,0.4,0.6,0.5,1.5c0.1,0.9,0.1,2.2,0.1,4s0,3.1-0.1,4
		c-0.1,0.9-0.3,1.3-0.5,1.5c-0.2,0.2-0.4,0.5-0.6,0.6c-0.3,0.2-0.6,0.4-1.5,0.5c-0.9,0.1-2.2,0.1-4,0.1H9c-1.9,0-3.1,0-4-0.1
		c-0.9-0.1-1.3-0.3-1.5-0.5c-0.2-0.2-0.5-0.4-0.6-0.6c-0.2-0.3-0.4-0.6-0.5-1.5c-0.1-0.9-0.1-2.2-0.1-4s0-3.1,0.1-4
		c0.1-0.9,0.3-1.3,0.5-1.5C2.9,7.2,3.2,7,3.4,6.8C3.7,6.7,4.1,6.5,5,6.4C5.9,6.3,7.1,6.3,9,6.3z"/>
</g>
</svg>
