<svg xmlns="http://www.w3.org/2000/svg" width="515.48646" height="360.97724" viewBox="0 0 515.48646 360.97724">
  <defs>
    <style>
      .cls-1, .cls-2 {
        fill: none;
        stroke-linecap: round;
      }

      .cls-1, .cls-11, .cls-12, .cls-13, .cls-14, .cls-2, .cls-8 {
        stroke: #273027;
        stroke-miterlimit: 10;
      }

      .cls-1 {
        stroke-width: 5px;
      }

      .cls-14, .cls-2, .cls-8 {
        stroke-width: 4px;
      }

      .cls-2 {
        opacity: 0.85;
      }

      .cls-11, .cls-3 {
        fill: #273027;
      }

      .cls-12, .cls-4 {
        fill: #a6a099;
      }

      .cls-5 {
        fill: #f0a518;
      }

      .cls-6 {
        fill: #fdfdfd;
      }

      .cls-7 {
        fill: #666;
        opacity: 0.1;
      }

      .cls-8 {
        fill: #cfff18;
      }

      .cls-9 {
        fill: #406c61;
      }

      .cls-10 {
        fill: #fff;
      }

      .cls-14 {
        fill: #d1991c;
      }
    </style>
  </defs>
  <g id="Layer_2" data-name="Layer 2">
    <g id="Layer_1-2" data-name="Layer 1">
      <g>
        <path class="cls-1" d="M164.09718,220.3571c-10.4312-6.75349-26.13824-15.14991-41.208-10.0947-22.61768,7.58719-13.46824,43.94049-55.31289,53.42736-10.38474,2.35442-27.90028,3.99661-59.24684-16.6977"/>
        <path class="cls-2" d="M177.92342,193.83391A231.47953,231.47953,0,0,1,94.207,246.75427,231.30864,231.30864,0,0,1,2,260.12833"/>
        <g>
          <g>
            <path class="cls-3" d="M510.4263,100.53459c-3.04871-10.80517-11.07752-16.16547-21.32709-16.39746-3.31506-.07507-6.6242-.48334-9.93805-.51154-1.92254-.01641-2.58569-.68164-2.65716-2.59076-.29572-7.89367-3.04151-16.22644,4.42737-22.61358a4.87986,4.87986,0,0,0,.91381-1.76056c4.60962-10.40985,3.36329-20.37579-3.56878-29.09876-6.82123-8.58355-16.27625-11.63433-27.16217-10.14611-2.43848.33337-4.60382,1.57092-6.80414-1.65827C432.59415-1.43684,406.45059.34282,396.73618,18.86973c-1.12452,2.1446-2.19922,3.11078-4.73676,3.43866-10.29279,1.3299-17.6358,6.83222-20.8,16.86274-2.96051,9.38458.16144,17.337,7.06946,23.95459,1.5376,1.473,2.48755,2.93261,2.205,5.19653-1.57245,12.598-3.06128,25.20648-4.621,37.806.00611.09759.02185.19287.02625.29083a12.69051,12.69051,0,0,1-.49756,4.06861c-.042.41046-.0896.82037-.157,1.22589-.13117.78882-.2782,1.57434-.42023,2.3609-.81171,6.45831-.63672,13.04254-1.31927,19.53711-.70136,6.673-1.9917,12.45617-2.65253,18.24414-.78461,6.87225-1.34326,13.97156-3.66913,20.53363-.35.98755-.67426,2.02966-1.00024,3.09033-.59967,4.4834-1.24695,8.98157-.8606,13.56256.82043,9.72772,8.1814,17.20691,17.94293,17.27094,26.6496.17486,53.3028.26471,79.95093.00885,13.17377-.12641,20.0813-7.27765,20.22382-20.21839.03723-3.38293,1.26721-4.59381,4.39245-5.301,13.60333-3.07794,22.60266-11.47772,25.50159-25.05029C517.27475,137.20933,515.52927,118.62,510.4263,100.53459Zm-125.01025,9.9173c.6278-4.947,1.26928-9.89343,1.79321-14.852.3454-3.26825,2.69482-2.78284,4.817-2.76087q26.72388.27668,53.4477.57c6.16351.06183,12.33252.21838,18.48962.02783,3.08936-.09564,4.03742,1.1344,4.19263,4.006.95135,17.60749,2.00543,35.20948,3.04126,52.81238.645,10.96094,1.38745,21.91663,1.95776,32.88135.52283,10.05035-1.96344,12.62494-11.79767,12.62195q-18.49218-.00577-36.98425-.00092l-.00006.11853h-38.482c-7.66284,0-11.38275-3.44915-10.58917-10.97931,1.3407-12.72143,3.27515-25.37994,4.91669-38.07049m8.94366-68.02094c.54-2.76672.15064-5.96484,1.43415-8.27032,1.44989-2.60449,4.85168-.43958,7.32818-1.13684a30.0036,30.0036,0,0,1,20.454,1.0932c7.77973,3.15576,16.059.85828,23.45563-3.14789a8.0655,8.0655,0,0,1,7.54346-.44366c4.31445,1.76287,8.82287,3.08258,13.55389,2.80255,2.312-.13684,2.95154.89374,2.94025,2.866-.00092.1662.00171.3332.01642.49854.888,9.97833.88842,10.02643-9.08368,10.09216-9.64508.06354-19.2909.0138-28.9364.0138l-33.92725.4378C390.16586,83.69066,388.36435,82.89409,389.16238,78.8054Zm83.3017-25.86908c-2.41,4.19617-5.92969,6.65455-11.39355,6.29914-3.42383.26733-6.74872-1.431-10.10993-2.79425-4.4812-1.81739-8.651-1.86908-12.72259,1.03479-3.71241,2.64776-8.12683,3.83844-12.44727,4.62658-3.33752.60883-6.70093-1.257-9.54517-3.02362-4.68878-2.91223-8.87139-3.95813-14.22937-.9967-4.438,2.453-9.67755,2.04217-14.38391-.48517C381.31723,54.206,378.495,46.93944,381.008,40.67741c2.65637-6.61914,9.59924-9.83465,16.76989-7.76678,4.25684,1.2276,6.433-.04883,7.10517-4.16736,2.20257-13.49664,16.71417-19.34839,27.92791-11.30194a10.40647,10.40647,0,0,1,4.06128,6.0567c1.78443,6.705,3.99567,7.90277,10.29218,5.165,7.39691-3.21625,14.28277-2.36267,20.62256,2.41016A16.97233,16.97233,0,0,1,472.46408,52.93632Zm6.90064,68.06873,1.61175-8.99445c3.834-.7796,7.16089,1.578,7.9043,5.61029a53.22237,53.22237,0,0,1,.46252,5.42432,203.115,203.115,0,0,1,.48413,21.37958c-.10388,3.3-1.07605,6.12054-4.13122,7.97717-2.78266,1.6911-4.32508,1.18958-4.53833-2.16949Q480.23026,135.62075,479.36472,121.00505Zm25.43353,30.64648c-1.93714,10.51453-8.18415,17.99884-19.30707,20.53168-2.78528.63422-3.36713-.04364-3.66522-2.717-.50263-4.50775.33258-6.91882,5.42755-8.47028,7.26337-2.21179,10.9776-8.33935,11.64551-15.89617.34985-3.958.0617-7.97242.0617-12.51484-.44116-4.06872-.03546-8.70239-.69867-13.36517-1.601-11.25568-4.777-14.72156-15.93249-15.99829a6.45886,6.45886,0,0,1-5.37476-8.81781c.51673-1.52026,1.60785-1.52441,2.75293-1.45557a102.85488,102.85488,0,0,1,11.39411.87488c7.07464,1.22742,10.47448,6.70874,11.75232,12.84C505.946,121.498,507.56558,136.63048,504.79825,151.65153Z"/>
            <path class="cls-3" d="M299.41971,267.86442c9.59442-.70074,18.18762-1.32568,26.78039-1.95672,6.93866-.50952,11.90692-5.327,11.85749-12.32855-.05268-7.45832-.68921-14.91736-1.20935-22.36646q-1.87345-26.83265-3.89148-53.655a6.73593,6.73593,0,0,1-.01142-.893,13.87931,13.87931,0,0,1-.35827-4.21594l.2893-2.15308a36.01235,36.01235,0,0,1-.46472-3.86664c-.25922-1.61639-.44232-3.24707-.59131-4.87842a39.11513,39.11513,0,0,1-.006-6.23925c-.31641-5.66828-.332-10.98127-1.56451-15.55439a19.02306,19.02306,0,0,1-.38-8.06915c-.95355-14.47662-2.2182-28.933-3.22919-43.40656-1.07556-15.3966-1.92016-30.80926-2.96783-46.20794-.6759-9.93451-1.26977-19.88733-2.41467-29.7724-.66046-5.70178-4.36011-8.48664-9.83972-8.61188Q260.76871,2.531,210.11887,1.38078C198.9805,1.11186,187.84409.24168,176.71347.348c-7.83221.07482-15.78827-1.70752-23.50488,2.14093-19.49036,9.72021-39.22339,18.95251-58.79492,28.512C82.38681,36.87523,80.946,40.28953,81.94846,53.87126,83.30637,72.26775,84.09451,90.70573,85.208,109.121c1.073,17.74585,2.36511,35.47851,3.37805,53.228l5.73859,81.94135c0,7.60168,1.5697,14.2912,1.817,21.18121a37.03972,37.03972,0,0,0,1.15222,8.37744c1.39936,5.18354,6.3678,9.06372,11.42969,8.63861,13.21649-1.10974,26.41895-2.38879,39.62329-3.6394,10.57209-1.00134,21.14722-1.98267,31.70386-3.13049,2.23987-.24353,3.53857.0426,4.05121.898,10.36676-2.80933,21.10327-3.41553,31.85248-3.00135a15.01139,15.01139,0,0,1,1.74707-.11584c10.75836-.77472,21.506-1.84265,32.27813-2.22833,5.07538-.1817,10.21088-1.59375,15.21894.51794a14.562,14.562,0,0,1,5.62115-1.2008c3.46308-.01526,6.91956-.11536,10.37183-.274,3.20715-.468,6.43072-.87634,9.65643-1.0589,1.86145-.10535-.31445-.96625,1.47669-.96411m-126.54377-2.58313c-8.25836.62884-16.47137,1.82916-24.71905,2.62915-9.41962.91363-18.86554,1.55841-28.28217,2.49847-4.32824.43207-6.7481-.63818-6.27545-5.5769.26746-2.795-.95825-6.145.20294-8.33691L98.52377,165.2783c-1.114-21.01965-2.0849-41.25683-3.28839-61.48022q-1.62945-27.37958-3.721-54.73059c-.30047-3.97809,1.27655-6.249,4.64844-7.84735,16.95807-8.03852,33.85956-16.19739,50.85657-24.15235,6.24237-2.92157,7.72436-1.93048,8.033,4.78q2.08484,45.33161,5.84234,90.5542c1.11176,13.57721,1.32569,27.22565,2.26093,40.82013,1.5628,22.71472,2.43786,45.47168,4.6087,68.152,1.23426,12.89484,1.59424,25.87213,2.4386,38.80634C170.42081,263.51817,169.70291,265.40868,165.78091,265.70726ZM324.325,254.85332c-23.88885,1.3778-47.71344,3.65307-71.61975,4.87365-22.06988,1.12683-44.113,2.8443-66.14545,4.58606-4.75762.3761-6.18151-1.43286-6.43066-5.7395q-1.85659-32.09711-3.96454-64.17956c-1.45172-21.55915-3.20794-43.098-4.63116-64.65882-.94123-14.25952-1.44782-28.54718-2.29834-42.81329-1.04846-17.58728-2.24689-35.16559-3.39118-52.74707-.42114-6.47083-.825-12.94336-1.33014-19.40778-.26391-3.37707,1.42139-4.38177,4.48652-4.33392,5.82562.09094,11.65362.02631,17.48065.02631l-.00251.26947c32.77533.80163,65.55579,1.44781,98.322,2.5271,7.1419.23522,14.29419.80456,21.43487.59027,4.08063-.1225,5.76264,1.40423,6.01727,5.32245,1.27179,19.571,2.55018,39.14208,3.968,58.70288,1.80188,24.85931,3.80347,49.70422,5.5932,74.56439.931,12.933,1.53577,25.88916,2.38819,38.82825,1.17956,17.90515,2.45135,35.80419,3.69079,53.70532.12641,1.82586.33948,3.64612.4444,5.4729C328.49844,253.24889,327.37674,254.67729,324.325,254.85332Z"/>
            <path class="cls-4" d="M186.32219,10.7289c32.77533.80164,65.5558,1.44779,98.322,2.52707,7.142.23525,14.29424.80459,21.43491.59026,4.08063-.12249,5.76263,1.40424,6.01726,5.32246,1.27182,19.571,2.55019,39.14208,3.968,58.70288,1.80185,24.85934,3.80343,49.70424,5.59317,74.56441.93107,12.933,1.53578,25.88916,2.38821,38.82825,1.17956,17.90512,2.45138,35.80417,3.69077,53.70532.12641,1.82584.33952,3.64612.44443,5.47288.16117,2.80647-.9605,4.23486-4.01224,4.41089-23.88882,1.37781-47.71341,3.65308-71.61971,4.87365-22.06989,1.12684-44.113,2.84433-66.14545,4.58607-4.75766.37613-6.18156-1.43287-6.43067-5.73947q-1.85659-32.09717-3.96453-64.17958c-1.45174-21.55915-3.208-43.098-4.63119-64.65884-.94124-14.2595-1.44783-28.54714-2.29832-42.81328-1.04847-17.58725-2.24689-35.16559-3.3912-52.74708-.42116-6.47079-.825-12.94333-1.33013-19.40777-.26392-3.37706,1.42137-4.38178,4.4865-4.33394,5.82561.09094,11.65363.02634,17.48066.02634ZM211.754,199.708c4.77084-.07438,8.28667-3.47114,8.2697-7.98959a8.27714,8.27714,0,0,0-8.28438-8.12052c-4.27939-.037-8.43875,4.01974-8.39253,8.18552A8.0664,8.0664,0,0,0,211.754,199.708Zm2.43086,22.99158c4.83633-.06806,8.15027-3.42881,8.00183-8.11486a8.07374,8.07374,0,0,0-16.14464.17306C206.02274,219.51461,209.358,222.7675,214.18484,222.69957Zm1.94717,23.144c5.248.051,8.17309-2.674,8.27-7.70441a7.94672,7.94672,0,0,0-8.01686-8.24216,8.48255,8.48255,0,0,0-8.1886,8.31805C208.21944,242.76023,211.37872,245.7973,216.132,245.84355Z"/>
            <path class="cls-4" d="M98.52376,165.27835c-1.114-21.01967-2.08487-41.25687-3.28841-61.48023q-1.62942-27.37959-3.721-54.73064c-.30046-3.97809,1.27655-6.249,4.64844-7.84733,16.95808-8.03852,33.85955-16.19738,50.85655-24.15236,6.2424-2.92158,7.72436-1.93044,8.033,4.78q2.08478,45.33161,5.84236,90.55419c1.11174,13.57722,1.32563,27.22564,2.26093,40.82014,1.56276,22.71472,2.43784,45.47171,4.60866,68.15207,1.23424,12.89483,1.59427,25.87211,2.43862,38.80632.21789,3.33762-.5,5.22815-4.422,5.52675-8.25837.62881-16.47136,1.82913-24.71905,2.62913-9.41958.91365-18.8655,1.55842-28.28215,2.49848-4.32827.43205-6.74809-.63821-6.27548-5.57692.26748-2.795-.95823-6.14495.203-8.33691M146.31238,81.6744c.16083-4.03811-3.4435-6.59586-7.67146-4.81193-8.22945,3.47233-16.29214,7.3466-24.36972,11.1689-3.55843,1.68385-4.01381,4.94015-2.62262,8.03106,1.29642,2.88031,4.00985,2.96054,6.8209,1.70282,7.84967-3.51207,15.76257-6.8835,23.59613-10.43051C144.41184,86.27238,146.17538,84.51587,146.31238,81.6744Zm.82255,24.54161a5.05616,5.05616,0,0,0-7.22925-4.868c-8.22214,3.47769-16.40194,7.05663-24.57253,10.65437-3.30109,1.45355-5.07426,4.05105-3.74241,7.56735,1.41784,3.74334,4.38124,3.91173,7.7959,2.429,7.73441-3.35849,15.52594-6.58546,23.29316-9.86843A7.16483,7.16483,0,0,0,147.13493,106.216ZM114.661,73.32336a143.97269,143.97269,0,0,0,28.25619-12.981c2.27529-1.40782,2.34435-4.66043.59819-7.2343-1.25433-1.84887-2.90951-2.7373-5.119-1.71458-8.7042,4.029-17.43323,8.00759-26.07132,12.17427-2.51652,1.21387-3.23741,3.70992-2.62256,6.34336C110.27354,72.35656,112.03884,73.42082,114.661,73.32336Z"/>
            <path class="cls-5" d="M385.416,110.45191c.62781-4.947,1.26929-9.89345,1.79325-14.852.34536-3.26829,2.69479-2.78286,4.81692-2.76089q26.72392.27667,53.44769.56993c6.16357.06184,12.33253.21843,18.48963.02786,3.08935-.09562,4.03744,1.13438,4.19262,4.006.95136,17.6075,2.00548,35.20949,3.04128,52.81239.64495,10.96095,1.38743,21.91664,1.9578,32.88137.5228,10.05033-1.96345,12.625-11.79771,12.62192q-18.49212-.00574-36.98421-.00092l-.00007.11858h-38.482c-7.6628,0-11.38271-3.44917-10.58913-10.97934,1.3407-12.72144,3.27516-25.37993,4.91664-38.07047M413.81927,170.417a6.67634,6.67634,0,0,0-6.42058-6.836c-3.4556-.02884-7.04369,3.2329-6.741,6.60531.32565,3.62729,2.26734,6.20093,6.24877,6.47789A6.42,6.42,0,0,0,413.81927,170.417Zm36.55807-11.10317c-.431-3.16647-2.34982-5.49867-6.37967-5.40035-4.0324.09838-5.92595,2.71053-6.29709,6.34023-.33,3.22742,2.97389,6.37612,6.25744,6.41511C447.58906,166.712,450.46334,163.70806,450.37734,159.31384ZM417.543,131.69839a6.41584,6.41584,0,0,0-6.42311,6.125,6.18081,6.18081,0,0,0,6.18,6.33315,6.24939,6.24939,0,0,0,.2431-12.45816Zm29.4938-19.19965c-3.70489.34778-5.70339,2.37129-5.7867,5.80751-.08874,3.65807,1.874,6.17677,5.6558,6.19939a5.46142,5.46142,0,0,0,5.761-5.68686C452.74413,115.26648,450.52411,113.06561,447.03678,112.49874Zm-38.96352-2.73143c-2.026.32813-3.06778,1.47945-2.99752,3.40764.08093,2.22129,1.43374,3.37864,3.57579,3.11771,1.91024-.23266,2.80857-1.59713,2.62359-3.55483A3.01322,3.01322,0,0,0,408.07326,109.76731Zm47.1995,72.85092c.00235-1.95206-.91142-3.20887-2.912-3.20729-1.86189.00144-3.16644.9598-3.19691,2.99377-.02874,1.91814.85077,3.17521,2.9226,3.1841A2.81388,2.81388,0,0,0,455.27276,182.61823Z"/>
            <path class="cls-6" d="M461.07053,59.23548c-3.42381.26732-6.74873-1.43106-10.11-2.79425-4.48117-1.81742-8.651-1.86911-12.72255,1.03481-3.71246,2.64774-8.12688,3.83843-12.44726,4.62655-3.33755.60883-6.70093-1.257-9.54517-3.02361-4.68879-2.91225-8.87144-3.9581-14.22941-.99668-4.438,2.453-9.67756,2.04213-14.38392-.48517-6.315-3.39116-9.13724-10.65765-6.62424-16.9197,2.65635-6.61912,9.59925-9.83467,16.76987-7.7668,4.25684,1.2276,6.43306-.04881,7.10516-4.16732,2.20258-13.49667,16.7142-19.34842,27.92794-11.302a10.40635,10.40635,0,0,1,4.06129,6.05671c1.7844,6.705,3.99565,7.90272,10.29219,5.165,7.39691-3.21623,14.28274-2.36267,20.62253,2.41016a16.97239,16.97239,0,0,1,4.67709,21.86318C470.054,57.13253,466.53439,59.59091,461.07053,59.23548Z"/>
            <path class="cls-7" d="M393.94107,83.61071c-3.77521.08-5.5767-.71662-4.77867-4.80527.54005-2.76677.15064-5.96488,1.43411-8.27035,1.44991-2.60448,4.85173-.43959,7.32819-1.13682a30.00353,30.00353,0,0,1,20.45408,1.0932c7.77967,3.15574,16.059.85823,23.45561-3.14789a8.06559,8.06559,0,0,1,7.54346-.4437c4.31446,1.7629,8.82285,3.08261,13.5539,2.80256,2.312-.13684,2.95152.89374,2.94023,2.866-.00094.16618.00168.33316.01639.49854.888,9.97829.88848,10.02642-9.08367,10.09213-9.64507.06356-19.2909.01377-28.9364.01377"/>
            <path class="cls-7" d="M498.96073,132.58491c-.44117-4.06876-.03544-8.70242-.6987-13.36519-1.601-11.25568-4.777-14.72158-15.93246-15.99829a6.45886,6.45886,0,0,1-5.37478-8.8178c.51671-1.52027,1.60784-1.52442,2.753-1.45559a102.84971,102.84971,0,0,1,11.39406.87489c7.07465,1.22744,10.47449,6.70873,11.75234,12.84,3.09185,14.8351,4.71141,29.96755,1.94407,44.98863-1.93711,10.51451-8.18414,17.99885-19.307,20.53165-2.78527.63423-3.36714-.04363-3.66524-2.717-.50261-4.50778.3326-6.91882,5.42759-8.4703,7.26333-2.21176,10.97756-8.33932,11.64548-15.89617C499.24886,141.14173,498.96073,137.12734,498.96073,132.58491Z"/>
            <path class="cls-6" d="M489.34327,123.04522a203.12057,203.12057,0,0,1,.48416,21.37959c-.1039,3.3-1.07606,6.12052-4.13121,7.97719-2.78268,1.69109-4.32508,1.18955-4.53835-2.1695q-.92766-14.61175-1.79312-29.22745c-.0597-.99234-.04007-1.7414-.04007-2.71466,0-1,0-6,1.65178-6.27977a6.62278,6.62278,0,0,1,7.90428,5.61028A53.21309,53.21309,0,0,1,489.34327,123.04522Z"/>
            <path class="cls-3" d="M257.74706,194.30262c-6.66117,1.03969-13.59086.3838-20.34909,1.38141-2.90935.16819-5.66248.2001-7.31141-2.93289-2.10981-4.00866.12472-7.94773,4.99375-8.33574,15.72567-1.25317,31.45778-2.42524,47.1877-3.62511.49694-.03793.99673-.05416,1.49518-.05387,4.72783.00267,7.751,2.83916,7.2477,6.7937"/>
            <path class="cls-3" d="M287.7552,226.70219c.49793-.03437.99605-.06657,1.494-.10108,3.8155-.26429,6.62.94045,7.06221,5.17865.47177,4.52165-2.3156,6.444-6.22292,6.7407-15.89663,1.20708-31.80581,2.25016-47.71211,3.328-3.867.262-7.07221-.49531-7.34426-5.28508-.2644-4.65519,2.40654-5.82158,6.5253-6.11958C256.96627,229.329,272.35746,227.97046,287.7552,226.70219Z"/>
            <path class="cls-3" d="M288.09363,203.46942c3.4481.02,5.21576,2.0116,5.31978,5.325.10387,3.30841-1.56473,5.12824-4.95987,5.70534-16.49076,2.803-33.22619,1.82447-49.79241,3.36736-3.86973.36041-6.45819-1.311-6.74754-4.92442-.29165-3.642,2.2998-5.8344,5.89175-6.15195,6.13-.54192,12.2799-1.05066,18.42812-1.147"/>
            <path class="cls-8" d="M211.8958,198.01546a6.37139,6.37139,0,0,1-6.64059-6.25938c-.03651-3.29043,3.24884-6.49474,6.629-6.46549a6.53785,6.53785,0,0,1,6.54356,6.41415A6.3011,6.3011,0,0,1,211.8958,198.01546Z"/>
            <path class="cls-3" d="M214.34114,222.69957c-4.82688.06793-8.1621-3.185-8.14281-7.9418a8.07374,8.07374,0,0,1,16.14464-.17306C222.49142,219.27076,219.17747,222.63151,214.34114,222.69957Z"/>
            <path class="cls-3" d="M216.28831,245.84355c-4.75328-.04625-7.91257-3.08332-7.93542-7.62852a8.48255,8.48255,0,0,1,8.1886-8.318,7.94672,7.94672,0,0,1,8.01686,8.24216C224.4614,243.16955,221.53628,245.89458,216.28831,245.84355Z"/>
            <path class="cls-3" d="M146.31238,81.6744c-.137,2.84147-1.90054,4.598-4.24677,5.66034-7.83356,3.547-15.74646,6.91844-23.59613,10.43051-2.81105,1.25772-5.52448,1.17749-6.8209-1.70282-1.39119-3.09091-.93581-6.34721,2.62262-8.03106,8.07758-3.8223,16.14027-7.69657,24.36972-11.1689C142.86888,75.07854,146.47321,77.63629,146.31238,81.6744Z"/>
            <path class="cls-3" d="M147.13493,106.216a7.16483,7.16483,0,0,1-4.45513,5.91434c-7.76722,3.283-15.55875,6.50994-23.29316,9.86843-3.41466,1.48272-6.37806,1.31433-7.7959-2.429-1.33185-3.5163.44132-6.1138,3.74241-7.56735,8.17059-3.59774,16.35039-7.17668,24.57253-10.65437A5.05616,5.05616,0,0,1,147.13493,106.216Z"/>
            <path class="cls-3" d="M114.661,73.32336c-2.6222.09746-4.3875-.9668-4.95845-3.41222-.61485-2.63344.106-5.12949,2.62256-6.34336,8.63809-4.16668,17.36712-8.14524,26.07132-12.17427,2.20944-1.02272,3.86462-.13429,5.119,1.71458,1.74616,2.57387,1.6771,5.82648-.59819,7.2343A143.97269,143.97269,0,0,1,114.661,73.32336Z"/>
            <path class="cls-3" d="M413.81927,170.417a6.42,6.42,0,0,1-6.91279,6.24715c-3.98143-.277-5.92312-2.8506-6.24877-6.47789-.30271-3.37241,3.28538-6.63415,6.741-6.60531A6.67634,6.67634,0,0,1,413.81927,170.417Z"/>
            <path class="cls-3" d="M450.37734,159.31384c.086,4.39422-2.78828,7.39812-6.41932,7.355-3.28355-.039-6.58742-3.18769-6.25744-6.41511.37114-3.6297,2.26469-6.24185,6.29709-6.34023C448.02752,153.81517,449.9463,156.14737,450.37734,159.31384Z"/>
            <path class="cls-3" d="M417.543,131.69839a6.24939,6.24939,0,0,1-.2431,12.45816,6.18081,6.18081,0,0,1-6.18-6.33315A6.41584,6.41584,0,0,1,417.543,131.69839Z"/>
            <path class="cls-3" d="M447.03678,112.49874c3.48733.56687,5.70735,2.76774,5.63011,6.32a5.46142,5.46142,0,0,1-5.761,5.68686c-3.7818-.02262-5.74454-2.54132-5.6558-6.19939C441.33339,114.87,443.33189,112.84652,447.03678,112.49874Z"/>
            <path class="cls-3" d="M408.07326,109.76731a3.01322,3.01322,0,0,1,3.20186,2.97052c.185,1.9577-.71335,3.32217-2.62359,3.55483-2.142.26093-3.49486-.89642-3.57579-3.11771C405.00548,111.24676,406.04728,110.09544,408.07326,109.76731Z"/>
            <path class="cls-3" d="M455.27233,182.62233a2.81235,2.81235,0,0,1-3.18587,2.96648c-2.07183-.00889-2.95134-1.266-2.9226-3.1841.03047-2.034,1.335-2.99233,3.19691-2.99377C454.36134,179.40936,455.27511,180.66617,455.27233,182.62233Z"/>
            <path class="cls-9" d="M331.75436,160.53343a41.60349,41.60349,0,0,1,.06-5.222c-.12317-2.20679-.20233-4.3573-.32391-6.43372-.08588-.01489-.16913-.029-.25513-.04388C331.31253,152.91246,330.78494,157.17076,331.75436,160.53343Z"/>
            <path class="cls-9" d="M377.90854,122.04112a15.30486,15.30486,0,0,0-3.77722,1.03449c-.15821,3.51562-.27875,7.03869-.6463,10.536-.01947.185-.04358.36255-.06391.5462a5.70155,5.70155,0,0,1,4.47351-.39111c3.5271.867,5.326-1.52344,7.155-3.62116"/>
          </g>
          <g>
            <path class="cls-3" d="M226.70436,59.03532c-6.60259-1.6588-13.23674-3.20275-19.79956-5.00626-7.73846-2.12658-15.43049-4.42763-23.107-6.76981a22.19455,22.19455,0,0,1-4.98485-2.36316c-3.165-1.9323-3.84421-4.53735-2.19054-8.1083,1.43985-3.10922,4.06125-2.399,6.47605-1.69734,12.70126,3.69059,25.36115,7.525,38.08211,11.14532a77.44321,77.44321,0,0,0,10.5203,2.00026c3.87241.53915,6.44869-1.58313,6.98577-5.46162a14.61647,14.61647,0,0,1,.43435-3.535c.38347-.91789,1.42545-2.18939,2.1514-2.1733.87006.01928,2.428,1.213,2.45428,1.94262a110.98389,110.98389,0,0,1-.14547,15.92178c-.19307,1.77848-2.66963,3.30907-3.78922,4.5934.69619,1.04548,2.4655,2.48147,2.50262,3.96093.20577,8.19975-.28512,16.42334-5.20057,23.44407-7.46114,10.65675-17.99482,14.90277-30.64656,12.842-12.24045-1.99373-19.44881-10.09161-22.65421-21.67-1.40742-5.08378-1.8999-10.44913-2.48375-15.7225-.378-3.41411.98024-4.40994,4.40453-4.26109,13.64815.59326,27.29866,1.13219,40.94829,1.69125ZM232.55792,69.512h-5.92563a8.12772,8.12772,0,0,0-.33788,1.148c-.6843,6.05413-5.16833,10.42409-10.543,10.26048-4.77831-.14545-6.89992-2.96584-7.25444-9.96576-.0885-1.74765-.65235-2.62213-2.43545-2.67562-4.23147-.127-8.46419-.2481-12.6913-.46915-2.0239-.10584-2.56813.87954-2.10247,2.58271a56.35727,56.35727,0,0,0,2.47986,8.04466c4.40849,9.938,13.16916,14.08876,23.63511,11.8901C227.58794,88.18359,232.87507,76.88459,232.55792,69.512Z"/>
            <path class="cls-3" d="M259.02454,41.08463c.748,6.1455,3.76657,8.40133,9.62573,6.40184,10.68018-3.6447,21.23854-7.64976,31.8187-11.58253,4.31162-1.60268,6.29991-1.4054,7.34988,1.07066,1.90441,4.491.91184,7.8729-3.23165,9.38326-11.51114,4.196-23.09041,8.2061-34.665,12.22549l-.04252.01464a.91213.91213,0,0,0,.187,1.77713c.81411.07282,1.62869.12937,2.44423.15322q13.85664.40515,27.71768.65407c4.00473.07414,5.14051,1.03434,5.04954,4.96711-.187,8.082-.54049,16.23572-5.539,23.06958-6.38133,8.72445-15.25273,12.195-25.77987,10.10088-10.82166-2.15268-17.06111-9.46695-19.56618-19.94062a64.2343,64.2343,0,0,1-1.38989-11.61107c-.27822-5.42292.01826-6.5459,4.20088-7.82334a.90921.90921,0,0,0,.185-1.657c-3.26623-1.80772-4.36093-4.61651-4.14029-8.30049.19485-3.25309.02081-6.54188.431-9.76128a5.45566,5.45566,0,0,1,1.69113-2.5157,1.92169,1.92169,0,0,1,2.88388,1.2574m4.725,30.45556a.91428.91428,0,0,0-.85714,1.00211c.78833,7.5552,2.68315,14.23061,9.55581,18.19915,5.65763,3.26692,11.6278,3.01387,16.86921-.86944,5.38231-3.98772,6.98847-9.85831,7.39987-16.19666a.914.914,0,0,0-.82507-.96114c-3.39909-.33334-3.44164-.09186-4.34652,3.10182a19.95043,19.95043,0,0,1-1.26883,3.33247c-1.81225,3.69474-5.37613,5.86118-8.82662,5.44806-3.68-.44062-6.07161-2.75175-7.241-6.93649-.554-1.98259-.59487-4.77662-1.91745-5.69972-1.50175-1.04817-4.17631-.43623-6.34235-.50232C264.53469,69.32161,263.88764,69.3702,262.97973,69.42345Z"/>
            <path class="cls-3" d="M245.84177,108.87045a46.30131,46.30131,0,0,1,44.1756,27.78559c1.96,4.5859,1.52855,6.637-1.7455,8.29685-3.60276,1.82657-4.96754,1.14229-7.00374-2.40743-2.52159-4.3959-4.87133-9.11763-8.3242-12.70952-10.40956-10.82868-23.43976-12.33377-37.3483-8.78615-12.99522,3.31469-24.10209,9.63487-31.94754,20.95918-2.59538,3.74625-5.38587,3.86673-8.35921.884-2.44457-2.45229-1.68291-4.85846.032-7.30694a61.66122,61.66122,0,0,1,23.71572-19.89224C227.71034,111.39384,236.80674,108.72007,245.84177,108.87045Z"/>
            <path class="cls-10" d="M232.55792,69.512c.31715,7.37259-4.97,18.67159-15.17519,20.81547-10.466,2.19866-19.22662-1.95206-23.63511-11.8901a56.35727,56.35727,0,0,1-2.47986-8.04466c-.46566-1.70317.07857-2.68855,2.10247-2.58271,4.22711.221,8.45983.34219,12.6913.46915,1.7831.05349,2.34695.928,2.43545,2.67562.35452,6.99992,2.47613,9.82031,7.25444,9.96576,5.37466.16361,9.85869-4.20635,10.543-10.26048a8.12772,8.12772,0,0,1,.33788-1.148Z"/>
            <path class="cls-10" d="M262.02923,69.47347c1.4479-.06559,2.301-.1581,3.15043-.13218,2.166.06609,4.8406-.54585,6.34235.50232,1.32258.9231,1.36343,3.71713,1.91745,5.69972,1.16937,4.18474,3.561,6.49587,7.241,6.93649,3.45049.41312,7.01437-1.75332,8.82662-5.44806a19.95043,19.95043,0,0,0,1.26883-3.33247c.97666-3.447.94875-3.45489,5.22078-3.01284-.32161,6.66978-1.82068,12.89878-7.44906,17.06882-5.24141,3.88331-11.21158,4.13636-16.86921.86944C264.51841,84.49026,262.76118,77.41786,262.02923,69.47347Z"/>
          </g>
          <path class="cls-3" d="M282.38365,180.66989c.49793-.03438.996-.06657,1.494-.10109,3.8155-.26429,6.62.94045,7.06221,5.17865.47177,4.52165-2.3156,6.444-6.22292,6.7407-15.89663,1.20709-31.80581,2.25017-47.71211,3.32805-3.867.262-7.40808-.736-7.68013-5.52581-.2644-4.65519,2.74241-5.58086,6.86117-5.87885C251.59471,183.29669,266.98591,181.93815,282.38365,180.66989Z"/>
        </g>
        <g>
          <path class="cls-3" d="M226.6699,59.83647c-6.60259-1.6588-13.23674-3.20276-19.79956-5.00626-7.73845-2.12659-15.43048-4.42763-23.107-6.76981a22.19485,22.19485,0,0,1-4.98486-2.36316c-3.165-1.9323-3.8442-4.53736-2.19053-8.1083,1.43984-3.10922,4.06124-2.399,6.476-1.69734,12.70125,3.69058,25.36114,7.525,38.0821,11.14532a77.44321,77.44321,0,0,0,10.5203,2.00026c3.87242.53915,6.4487-1.58314,6.98578-5.46163a14.617,14.617,0,0,1,.43434-3.535c.38348-.91789,1.42546-2.18939,2.1514-2.17331.87007.01928,2.428,1.213,2.45428,1.94262a110.98258,110.98258,0,0,1-.14547,15.92179c-.19307,1.77848-2.66962,3.30907-3.78921,4.5934.69618,1.04548,2.4655,2.48147,2.50262,3.96092.20577,8.19975-.28513,16.42334-5.20057,23.44408-7.46115,10.65675-17.99482,14.90277-30.64656,12.842-12.24045-1.99374-19.44881-10.09162-22.65422-21.67-1.40741-5.08378-1.89989-10.44913-2.48375-15.72251-.378-3.41411.98025-4.40993,4.40454-4.26109,13.64814.59326,27.29865,1.1322,40.94828,1.69125Zm5.85356,10.47667h-5.92563a8.13083,8.13083,0,0,0-.33788,1.148c-.68429,6.05413-5.16832,10.42409-10.543,10.26049-4.77832-.14546-6.89993-2.96585-7.25444-9.96576-.08851-1.74765-.65235-2.62214-2.43545-2.67563-4.23148-.127-8.46419-.2481-12.69131-.46915-2.0239-.10583-2.56813.87955-2.10247,2.58272a56.35934,56.35934,0,0,0,2.47986,8.04466c4.40849,9.938,13.16917,14.08875,23.63511,11.8901C227.55349,88.98474,232.84061,77.68574,232.52346,70.31314Z"/>
          <path class="cls-3" d="M258.99009,41.88577c.748,6.14551,3.76656,8.40134,9.62573,6.40185,10.68018-3.6447,21.23853-7.64976,31.8187-11.58253,4.31162-1.60268,6.29991-1.4054,7.34987,1.07065,1.90441,4.491.91185,7.87291-3.23164,9.38327-11.51115,4.196-23.09041,8.20609-34.665,12.22549l-.04252.01463a.91214.91214,0,0,0,.187,1.77714c.8141.07282,1.62868.12937,2.44422.15322q13.85664.40514,27.71768.65407c4.00474.07413,5.14051,1.03434,5.04954,4.96711-.187,8.082-.54049,16.23571-5.539,23.06958-6.38132,8.72445-15.25273,12.195-25.77986,10.10088-10.82167-2.15268-17.06112-9.46695-19.56618-19.94063a64.2333,64.2333,0,0,1-1.38989-11.61106c-.27822-5.42292.01826-6.54591,4.20088-7.82334a.90921.90921,0,0,0,.185-1.657c-3.26623-1.80773-4.36093-4.61651-4.14028-8.3005.19484-3.25309.0208-6.54187.43095-9.76127a5.45574,5.45574,0,0,1,1.69113-2.5157,1.92169,1.92169,0,0,1,2.88389,1.2574m4.725,30.45555a.9143.9143,0,0,0-.85714,1.00212c.78833,7.5552,2.68316,14.23061,9.55582,18.19915,5.65762,3.26692,11.6278,3.01386,16.8692-.86945,5.38231-3.98771,6.98848-9.8583,7.39988-16.19666a.914.914,0,0,0-.82508-.96113c-3.39908-.33334-3.44163-.09186-4.34652,3.10181a19.94966,19.94966,0,0,1-1.26883,3.33248c-1.81225,3.69474-5.37612,5.86118-8.82662,5.448-3.68-.44061-6.0716-2.75175-7.241-6.93649-.554-1.98259-.59486-4.77662-1.91745-5.69972-1.50175-1.04816-4.1763-.43622-6.34234-.50232C264.50023,70.12275,263.85318,70.17135,262.94527,70.22459Z"/>
          <path class="cls-3" d="M245.80731,109.6716a46.30133,46.30133,0,0,1,44.17561,27.78558c1.96,4.58591,1.52855,6.637-1.74551,8.29686-3.60276,1.82656-4.96754,1.14228-7.00374-2.40744-2.52158-4.3959-4.87132-9.11763-8.3242-12.70951-10.40956-10.82868-23.43975-12.33378-37.3483-8.78615-12.99521,3.31468-24.10209,9.63487-31.94753,20.95918-2.59539,3.74625-5.38588,3.86673-8.35922.884-2.44457-2.45228-1.6829-4.85845.032-7.30693A61.661,61.661,0,0,1,219.00213,116.495C227.67588,112.195,236.77229,109.52121,245.80731,109.6716Z"/>
          <path class="cls-10" d="M232.52346,70.31314c.31715,7.3726-4.97,18.6716-15.17519,20.81548-10.46594,2.19865-19.22662-1.95206-23.63511-11.8901a56.35934,56.35934,0,0,1-2.47986-8.04466c-.46566-1.70317.07857-2.68855,2.10247-2.58272,4.22712.221,8.45983.3422,12.69131.46915,1.7831.05349,2.34694.928,2.43545,2.67563.35451,6.99991,2.47612,9.8203,7.25444,9.96576,5.37466.1636,9.85869-4.20636,10.543-10.26049a8.13083,8.13083,0,0,1,.33788-1.148Z"/>
          <path class="cls-10" d="M261.99477,70.27461c1.4479-.06559,2.301-.15809,3.15044-.13218,2.166.0661,4.84059-.54584,6.34234.50232,1.32259.9231,1.36344,3.71713,1.91745,5.69972,1.16938,4.18474,3.561,6.49588,7.241,6.93649,3.4505.41313,7.01437-1.75331,8.82662-5.448a19.94966,19.94966,0,0,0,1.26883-3.33248c.97666-3.447.94876-3.45489,5.22078-3.01283-.32161,6.66977-1.82067,12.89878-7.44906,17.06881-5.2414,3.88331-11.21158,4.13637-16.8692.86945C264.484,85.2914,262.72673,78.219,261.99477,70.27461Z"/>
        </g>
      </g>
      <g id="legs">
        <g>
          <path class="cls-11" d="M324.18163,326.25481c-5.29191-.45931-10.64467-.218-16.31062-.293-.01993-.57212-.045-1.63931-.09618-2.70523-.34875-7.257-.763-14.51161-1.02674-21.77167-.10976-3.0215.01879-6.05882.18353-9.081.15995-2.93389.01558-5.95914-1.98255-8.10059a98.94948,98.94948,0,0,1-9.36426-12.12865c-1.265-1.8624-3.2499-3.24409-4.95228-4.79534a7.362,7.362,0,0,0-1.51585-.84027c1.45282-.254,2.87588-.47093,4.278-.66517-1.97992-1.05344-3.94029-2.16139-5.95183-3.12134-.47791-.122-.96019-.22387-1.44606-.31234q-1.06618-.03623-2.13283-.01939l-2.03435.07087c-4.412.23575-8.81616.98748-13.15891,1.65364a444.85386,444.85386,0,0,1-45.29789,4.38453c-15.14811.75352-30.3235.86-45.33875,3.196a77.22653,77.22653,0,0,0-13.66048,3.6225,38.7258,38.7258,0,0,0-3.20857,2.183q2.61261-.22266,5.22538-.44353c1.05263-.0878,2.1132-.08059,2.71575-.10158-.65862,5.32917-1.30708,10.57615-1.95511,15.81987a72.72568,72.72568,0,0,0-8.5617.94089c-7.32463,1.63039-14.27569,7.85067-14.56163,15.74526a48.93849,48.93849,0,0,1-1.19545,7.40329,7.39611,7.39611,0,0,1-2.81017,4.29215A117.73316,117.73316,0,0,0,128.64287,331.609c-4.00579,4.42456-3.745,10.44818.25967,14.75992,3.64691,3.92648,7.52851,7.63755,11.36052,11.38856A9.46391,9.46391,0,0,0,147.3,360.47317q17.006-.46537,34.00658-1.11893a5.9677,5.9677,0,0,0,6.03939-5.94038,16.30364,16.30364,0,0,0-6.63928-14.73534A23.11831,23.11831,0,0,0,168.527,333.9683c.52335-.37328.71071-.53891.92492-.655,5.42786-2.94256,10.81666-5.96208,16.31542-8.76585a13.3548,13.3548,0,0,1,5.17461-1.35537c6.28691-.35755,11.23372-3.772,13.04089-9.82863a10.90591,10.90591,0,0,1,3.90108-5.72667c6.09485-4.96618,9.2497-11.80044,10.92176-19.29184.9533-4.2711,1.33839-8.66905,2.0343-13.38212,2.57221.125,5.3959.29184,8.22194.39322,5.34641.19178,9.15006,2.74691,11.9368,7.26351a36.08071,36.08071,0,0,0,13.313,13.19844c3.99928,2.16992,8.35432,3.68415,12.66457,5.54018.03864-.1031-.02424.14818-.14305.36942-4.50771,8.39473-1.23116,19.97905,8.67012,24.78689,2.61036,1.26753,3.774,2.88833,3.77911,5.47579a16.70348,16.70348,0,0,1-.76387,4.92582c-1.35043,4.335-3.123,8.56686-2.52429,13.26634.44661,3.5052,2.82537,5.77545,6.29175,5.66284q26.87986-.87327,53.75535-1.87695c3.3901-.12571,6.649-2.90605,7.11728-5.98649a16.029,16.029,0,0,0-2.39267-11.87871A21.66317,21.66317,0,0,0,324.18163,326.25481ZM210.86814,284.85745c-1.13061,5.77284-2.78321,11.62227-7.56972,15.40977-3.37949,2.67413-5.4968,5.32669-5.93116,9.78512-.35915,3.6864-3.20533,5.53021-7.03491,5.35093a14.70116,14.70116,0,0,0-8.25821,2.18673c-8.02535,4.55706-16.18294,8.88064-24.24575,13.37285a38.8283,38.8283,0,0,0-5.18472,3.56151,3.45463,3.45463,0,0,0-1.11618,4.54635c.88071,1.71538,2.44623,1.91225,4.21117,1.57231,4.35884-.83961,8.75611-1.31642,13.14028-.30155,5.23493,1.2118,9.45481,3.70184,11.09638,9.296.4556,1.55258.08542,2.05916-1.53175,2.10584-10.04736.29-20.0913.72868-30.1401.90349a7.22,7.22,0,0,1-4.53526-1.711c-3.17189-2.85751-6.0512-6.04155-9.02148-9.12034-1.927-1.9974-2.20441-3.4212-.61524-5.76585a23.0714,23.0714,0,0,1,4.12493-4.44459c2.47149-2.11739,5.22213-3.914,7.64583-6.08a10.84906,10.84906,0,0,0,2.8526-4.07165A32.80252,32.80252,0,0,0,151.269,310.003c.02752-3.73384,2.46194-6.30649,5.58382-7.96432,5.26442-2.79562,10.815-2.62352,16.36768-.88188,1.43948.45151,2.82675,1.239,4.13241-.13885,1.25579-1.32519.50358-2.63341-.14207-3.93177-3.0878-6.20927-2.30411-12.36749.30389-18.47819a3.932,3.932,0,0,1,3.75444-2.51581c9.14067-.678,18.26748-1.54241,27.40025-2.32853.875-.07531,1.75724-.06722,3.3508-.12273C211.64567,277.51086,211.57536,281.24652,210.86814,284.85745Zm121.64149,61.72928q-23.3085.83675-46.61754,1.65792c-2.68895.09489-3.17841-.51308-2.38708-3.1124.67126-2.205,1.42148-4.3873,2.185-6.56271a19.528,19.528,0,0,0-.04544-12.1935,8.2611,8.2611,0,0,0-5.5286-5.98065,11.84841,11.84841,0,0,1-7.54076-7.49331c-1.45094-4.14534.16431-8.60451,4.21014-11.86734,1.30205-1.05007,2.32624-2.13187,1.94492-3.92213-.38976-1.82986-1.78-2.67473-3.43391-3.08549-2.56608-.63729-5.16-1.16139-7.737-1.75568a30.77178,30.77178,0,0,1-13.15777-6.72935c4.70193-7.33253,11.0806-12.32134,18.63893-15.96607a7.25845,7.25845,0,0,1,6.78947-.06708c5.38887,2.6153,9.93752,6.00384,12.459,11.72391a8.97211,8.97211,0,0,0,3.26048,3.48056c3.65971,2.42568,4.81812,5.60674,3.85587,9.833a18.1074,18.1074,0,0,0-.24528,5.00978c.55,9.41931,1.1752,18.83422,1.77846,28.25037.039.6096.08535,1.22041.16772,1.82528.49529,3.637,2.12861,5.03653,5.79658,4.59281,5.60314-.67782,11.188-1.36019,16.83732-.56131,3.82528.541,7.22184,1.93514,9.73481,4.9709a12.83561,12.83561,0,0,1,2.114,3.43942C336.72283,344.99605,335.65684,346.47376,332.50963,346.58673Z"/>
          <path class="cls-12" d="M212.0202,273.641c-.37452,3.8699-.44485,7.60556-1.15206,11.21648-1.13062,5.77285-2.78321,11.62227-7.56973,15.40978-3.37947,2.67413-5.49679,5.32667-5.93116,9.78511-.35916,3.68641-3.20531,5.53023-7.0349,5.35094a14.7013,14.7013,0,0,0-8.25822,2.18672c-8.02535,4.55707-16.18293,8.88065-24.24573,13.37284a38.83047,38.83047,0,0,0-5.18475,3.56151,3.45466,3.45466,0,0,0-1.11616,4.54637c.88072,1.71539,2.44624,1.91225,4.21118,1.57229,4.35883-.83959,8.75611-1.31641,13.14026-.30154,5.23495,1.21181,9.4548,3.70186,11.09639,9.296.4556,1.55258.08542,2.05916-1.53176,2.10584-10.04734.29-20.09129.72868-30.1401.9035a7.22,7.22,0,0,1-4.53526-1.711c-3.17186-2.85751-6.05119-6.04155-9.02147-9.12035-1.927-1.99739-2.20442-3.42118-.61524-5.76584a23.07066,23.07066,0,0,1,4.12492-4.44457c2.4715-2.11739,5.22214-3.914,7.64584-6.08a10.84882,10.84882,0,0,0,2.8526-4.07165A32.80256,32.80256,0,0,0,151.269,310.003c.02751-3.73384,2.462-6.3065,5.5838-7.96432,5.26444-2.79562,10.815-2.62351,16.36771-.88188,1.43948.4515,2.82673,1.239,4.1324-.13885,1.25578-1.32519.50359-2.63341-.14208-3.93178-3.0878-6.20926-2.30409-12.36748.30391-18.47818a3.932,3.932,0,0,1,3.75442-2.51581c9.14068-.678,18.26749-1.54243,27.40026-2.32854C209.54444,273.68836,210.42665,273.69648,212.0202,273.641Zm-29.3608,33.24889a6.671,6.671,0,0,0,.72128,1.7658c.89241,1.27339,2.41624,1.16892,2.79954-.28618a13.256,13.256,0,0,1,3.95382-6.721,1.91949,1.91949,0,0,0,.14861-1.82752,2.00593,2.00593,0,0,0-1.67091-.6905C185.96847,299.48092,182.55911,303.71275,182.6594,306.88986Z"/>
          <path class="cls-12" d="M254.40158,285.54211c4.70194-7.33253,11.08061-12.32136,18.63893-15.96608A7.25842,7.25842,0,0,1,279.83,269.509c5.38888,2.61528,9.93752,6.00384,12.459,11.7239a8.9722,8.9722,0,0,0,3.26046,3.48056c3.65972,2.42567,4.81814,5.60673,3.85587,9.833a18.10778,18.10778,0,0,0-.24527,5.00978c.54995,9.4193,1.17521,18.83421,1.77845,28.25039.03905.60959.08537,1.22039.16773,1.82525.49528,3.637,2.12862,5.03654,5.79659,4.59282,5.60312-.67781,11.188-1.36018,16.83732-.56131,3.82528.54094,7.22184,1.93515,9.73481,4.97091a12.83571,12.83571,0,0,1,2.114,3.43941c1.13384,2.92242.06785,4.40012-3.07936,4.51309q-23.3085.83675-46.61754,1.65793c-2.689.09489-3.17842-.51309-2.3871-3.11241.67128-2.205,1.42149-4.3873,2.185-6.5627a19.5281,19.5281,0,0,0-.04543-12.1935,8.26106,8.26106,0,0,0-5.52861-5.98065,11.84841,11.84841,0,0,1-7.54076-7.49331c-1.45093-4.14534.16431-8.60451,4.21014-11.86736,1.302-1.05,2.32624-2.13187,1.94492-3.9221-.38975-1.82987-1.78-2.67475-3.43391-3.0855-2.56607-.63729-5.16-1.16139-7.737-1.75569A30.77186,30.77186,0,0,1,254.40158,285.54211Zm32.89944,6.05174c.15677,3.28672,2.17022,5.75317,5.01515,6.26747,1.54369.27907,2.99688-.0108,3.468-1.66113.46057-1.61325-.85525-2.30728-2.12272-2.70093a6.66351,6.66351,0,0,1-4.03429-3.46907,6.49839,6.49839,0,0,0-1.29647-1.31837,18.20375,18.20375,0,0,0-.95006,1.85212A3.05555,3.05555,0,0,0,287.301,291.59385Z"/>
          <path class="cls-13" d="M182.6594,306.88986c-.10029-3.17711,3.30907-7.40894,5.95234-7.75938a2.00593,2.00593,0,0,1,1.67091.6905,1.91949,1.91949,0,0,1-.14861,1.82752,13.256,13.256,0,0,0-3.95382,6.721c-.3833,1.4551-1.90713,1.55957-2.79954.28618A6.671,6.671,0,0,1,182.6594,306.88986Z"/>
          <path class="cls-13" d="M287.301,291.59385a3.05555,3.05555,0,0,1,.07963-1.02991,18.20375,18.20375,0,0,1,.95006-1.85212,6.49839,6.49839,0,0,1,1.29647,1.31837,6.66351,6.66351,0,0,0,4.03429,3.46907c1.26747.39365,2.58329,1.08768,2.12272,2.70093-.47114,1.65033-1.92433,1.9402-3.468,1.66113C289.47124,297.347,287.45779,294.88057,287.301,291.59385Z"/>
        </g>
      </g>
      <g id="arm_right" data-name="arm right">
        <g>
          <path class="cls-4" d="M148.70539,182.337c-.87144-2.38393.7219-5.41449.67448-7.92177a55.2793,55.2793,0,0,0-1.63356-10.2246c-.5562-2.63814-1.65844-5.75685-1.51054-8.47966a4.36286,4.36286,0,0,1,.377-1.5973,3.83385,3.83385,0,0,1-.02713-.47246,1.50447,1.50447,0,0,1-.30683.77365,3.56744,3.56744,0,0,1-2.86986.91379c-2.1444-.42655-4.19562-1.30394-6.303-1.93735-8.169-2.45528-16.31648-2.83-24.43583.2621a23.14149,23.14149,0,0,0-11.31054,9.01215,6.60632,6.60632,0,0,1-3.67344,2.45381c-8.064,1.9139-13.88384,6.98-18.758,13.2538a75.84172,75.84172,0,0,0-14.06128,28.95337,11.76082,11.76082,0,0,1-2.34914,4.4164c-4.39985,5.43207-7.4059,11.43147-7.76874,18.50491-.29916,5.83271,1.85537,10.32152,7.4713,12.81144a3.18963,3.18963,0,0,1,1.6715,2.06047c2.09031,16.35027,13.20169,24.63932,27.111,30.34373a65.4977,65.4977,0,0,0,9.221,2.61719c3.62078.89276,5.38484,2.70075,5.65861,6.36652.46923,6.28308-4.65884,10.96327.51888,14.633,1.7402,1.2334,1.61928,1.9259.60127,4.81014-1.34713,3.81679.47286,3.36173.60126,3.60761.31764.60822,1.84179,1.41682,1.20254,1.20254-1.2676,3.60243.91049,5.26788,4.87605,5.95539a12.01717,12.01717,0,0,0,13.42838-9.02012c.67657-2.65154,1.35868-3.87356,4.42113-2.72541,2.915,1.09284,5.82453-1.08033,6.31508-4.69528.33315-2.45509,1.54269-3.396,3.69634-3.99283,3.8863-1.077,4.9336-2.78508,4.01786-6.64007-.6205-2.612-.54435-4.69954,1.61928-6.7799,2.22323-2.13765,1.637-6.07426-.80164-8.67464-4.07-4.33977-9.533-5.31687-15.02872-5.91557-7.9261-.86352-7.80246-.78443-10.10023-8.213-1.8005-5.821-3.76922-11.61221-6.0715-17.24986a48.28476,48.28476,0,0,0-12.17266-17.31573c-.86587-.7993-1.69459-2.6227-1.34409-3.48761a3.85519,3.85519,0,0,1,3.31986-1.72446c3.075.608,6.02758,1.81782,9.04977,2.71976a7.13331,7.13331,0,0,0,3.28231.57092c12.53686-2.822,21.29994-10.35664,26.2-22.10507,2.17133-5.206,3.41394-10.79962,5.19077-16.584a28.56634,28.56634,0,0,1,1.90407,2.35626,3.4114,3.4114,0,0,1-.22779-.5427A5.45663,5.45663,0,0,1,148.70539,182.337Z"/>
          <path class="cls-3" d="M147.57057,260.59636c-4.24829-2.162-9.26365-2.93958-14.0171-3.92688-2.05-.42582-3.16689-1.0483-3.67439-3.09537-1.44409-5.8246-3.0909-11.59977-4.46478-17.43985a3.08637,3.08637,0,0,1,1.18782-2.6824c12.2272-5.80728,19.685-15.81594,24.51466-27.99312,2.58192-6.5099,3.06879-13.25428-.22717-19.79189-.03626-.07189-.07853-.14055-.118-.21072a3.20546,3.20546,0,0,1-.16327-.27682,28.56634,28.56634,0,0,0-1.90407-2.35626c-1.77683,5.78438-3.01944,11.378-5.19077,16.584-4.9,11.74843-13.6631,19.28307-26.2,22.10507a7.13331,7.13331,0,0,1-3.28231-.57092c-3.02219-.90194-5.97481-2.11178-9.04977-2.71976a3.85519,3.85519,0,0,0-3.31986,1.72446c-.3505.86491.47822,2.68831,1.34409,3.48761a48.28476,48.28476,0,0,1,12.17266,17.31573c2.30228,5.63765,4.271,11.42886,6.0715,17.24986,2.29777,7.42854,2.17413,7.34945,10.10023,8.213,5.49571.5987,10.95871,1.5758,15.02872,5.91557,2.43869,2.60038,3.02487,6.537.80164,8.67464-2.16363,2.08036-2.23978,4.16792-1.61928,6.7799.91574,3.855-.13156,5.56308-4.01786,6.64007-2.15365.59679-3.36319,1.53774-3.69634,3.99283-.49055,3.615-3.40012,5.78812-6.31508,4.69528-3.06245-1.14815-3.74456.07387-4.42113,2.72541-1.57062,6.15529-4.63142,6.4851-10.48795,5.4698-3.96556-.68751-7.88155-4.214-6.614-7.81648l-4.12648-18.84192c-.27377-3.66577-2.03783-5.47376-5.65861-6.36652a65.4977,65.4977,0,0,1-9.221-2.61719c-13.90931-5.70441-25.02069-13.99346-27.111-30.34373a3.18963,3.18963,0,0,0-1.6715-2.06047c-5.61593-2.48992-7.77046-6.97873-7.4713-12.81144.36284-7.07344,3.36889-13.07284,7.76874-18.50491a11.76082,11.76082,0,0,0,2.34914-4.4164,75.84172,75.84172,0,0,1,14.06128-28.95337c4.87411-6.27382,10.694-11.3399,18.758-13.2538a6.60632,6.60632,0,0,0,3.67344-2.45381,23.14149,23.14149,0,0,1,11.31054-9.01215c8.11935-3.09207,16.26686-2.71738,24.43583-.2621,2.10741.63341,4.15863,1.5108,6.303,1.93735a3.56744,3.56744,0,0,0,2.86986-.91379,1.50447,1.50447,0,0,0,.30683-.77365,3.82846,3.82846,0,0,1,.04155-.52537,4.09932,4.09932,0,0,0-.26027-1.45249,8.82568,8.82568,0,0,0-2.1004-2.86938,24.096,24.096,0,0,0-15.66048-6.71153,47.487,47.487,0,0,0-22.61382,3.6787c-2.04359,1.33134-4.3269,2.285-6.30462,3.696a23.49283,23.49283,0,0,0-2.61465,2.56871,17.05734,17.05734,0,0,0-2.43715,2.27,3.49012,3.49012,0,0,1-.95328.95721,1.67246,1.67246,0,0,1-.66395.61279c-14.31174,5.80027-23.1142,17.29155-30.29231,30.09029-3.17761,5.66577-4.73869,12.23354-7.10266,18.36523a15.19245,15.19245,0,0,1-1.95882,3.604c-6.49034,8.67728-9.291,18.32274-7.447,29.076A18.81911,18.81911,0,0,0,53.21828,248.575a5.512,5.512,0,0,1,1.9601,2.50471c3.98219,15.61762,14.43124,25.42782,28.50477,32.03321.38864.18239.78131.37836,1.35975.66068a10.44483,10.44483,0,0,1,4.32675,1.03292c.86205.1894,1.72167.39032,2.58434.5805,1.43007.31531,2.90928.35722,4.313.78288a3.82735,3.82735,0,0,1,1.18617.61679c.11875-.06631.23193-.13585.35153-.20165.03593.21215.07325.4181.11017.62607a2.51455,2.51455,0,0,1,.66186,1.26852c.01244.07461.01692.14291.02642.21513a3.18894,3.18894,0,0,1,.4489,1.73554c-.01123.98448-.05674,1.973-.12181,2.96414.02771.28966.05167.579.06775.86861a1.14858,1.14858,0,0,1-.178.60193,26.50792,26.50792,0,0,0,1.56853,10.82921l3.00634,4.20887c.36177.58428,1.89918,2.41208,2.40507,3.00634a26.1024,26.1024,0,0,0,2.40507,3.00634c3.86347,1.23483,5.61916,2.61282,9.019,3.00634,7.2885.84355,9.85442,2.45245,14.455-2.52042a6.06366,6.06366,0,0,1,1.22984-2.0179,3.39942,3.39942,0,0,1,2.91276-1.82857,2.28721,2.28721,0,0,1,.29773.00892,3.34207,3.34207,0,0,1,1.41679-.29469c.10382,0,.2029.00712.30166.01479.089-.00635.17663-.01479.26984-.01479.05288,0,.10213.0055.15373.00752.0771-.02341.15054-.05211.228-.07494a54.80253,54.80253,0,0,1,4.89415-3.43,3,3,0,0,1,.6754-.80483c.18676-.5558.354-1.1269.53833-1.6943.98678-3.0361,2.33109-4.38455,4.5265-5.08956a2.89688,2.89688,0,0,1,1.5141-.94381l.01549-.0105a2.9187,2.9187,0,0,1,1.40111-1.27021,14.74624,14.74624,0,0,0,1.203-2.64148,49.85558,49.85558,0,0,0,.8223-5.29207,6.11329,6.11329,0,0,1,.99945-1.81228C161.399,278.98692,158.27511,266.044,147.57057,260.59636Z"/>
        </g>
      </g>
      <g id="arm_left" data-name="arm left">
        <g>
          <path class="cls-3" d="M400.70853,198.70987a9.00645,9.00645,0,0,0-.96518-.60263,5.77317,5.77317,0,0,1-1.24918-.88008q-3.37617-.1192-6.75189-.24359c-1.37228-.05013-2.694.41552-4.17626-.45894a6.17477,6.17477,0,0,1-3.46121-5.93848c.12-4.03775.51291-8.08818.30768-12.10857-.18077-3.54249.611-7.00048.33464-10.56237-.16176-2.08541.49879-4.31.70642-6.491a1.25344,1.25344,0,0,1,.90151-1.054c5.74183-1.79952,8.21092-6.45934,9.35239-11.73,1.7366-8.01885-.34161-15.092-6.70847-20.578-.9613-.82831-4.84968-2.506-4.6743-3.77182.10156-.73294.001-2.80975-.01355-4.12747-.00589-.532-.47433-4.72841-.98645-4.87253-2.69135-.75737-5.97,2.16423-8,1-.07125,1.22213-.92144,5.77838-1,7-.122,1.895-1,3,3.25759,2.09575.70451-.14963-2.62474-.17844-3.25759-.09575-4.38381.57276-10.722,7.97674-12.39255,15.02867-.53861,2.27352.63124,18.66235.599,21.01526-.0037.27073-8.88286,1.75669-9.03653,1.82787-.39314.18216-14.52253-13.98919-14.73008-14.28373-1.33632-1.89578-3.41415-3.68-4.73847-5.58419-.64109-.92182-1.08077-2.13582-1.94683-2.71819-1.93788-1.30327-2.00658-3.13115-2.12052-5.1224-.41268-7.21109-.91838-14.41688-1.36229-21.62625-.05587-.90736-.43572-1.85966.1867-2.72911q-4.7882.14577-9.57634.29159,3.08945,47.33874,6.16752,94.67823c.55436,8.6156.97041,17.24,1.45,25.86045q4.50646-.13724,9.013-.27451c-.32237-1.72162.50765-2.06216,2.05787-1.94143,5.27858.41094,33.47455-1.6856,38.5309-3.41,7.00131-2.38758,12.54715-7.08691,17.91915-12.06462a41.44682,41.44682,0,0,0,3.39615-3.74232c.4988-.59037,1.256-1.08021,1.51768-1.76123a3.99945,3.99945,0,0,1,1.57683-2.0661c.20881-1.73517.5037-3.46075.80945-5.18594a89.01193,89.01193,0,0,0-.93682-2.7726ZM383.16112,207.8c-4.75642,4.45825-33.13533,9.33928-39.688,10.39386a23.9025,23.9025,0,0,1-6.73181.10512,1.4246,1.4246,0,0,1-1.48638-1.58169c-.13365-2.43879-.37884-4.8714-.52037-7.30985-.392-6.75419-.754-13.51013-1.03193-18.53259-.61511-10.07992-1.12466-18.42722-1.63348-26.77452-.02859-.469-.06353-.938-.074-1.40749-.01019-.45743-.14629-1.03807.2797-1.29757.63074-.38427,1.0349.21529,1.39915.59987,3.16416,3.34146,6.28653,6.72283,9.47028,10.04537,1.96405,2.04963,26.73115.69925,29.07327-.42746a2.70752,2.70752,0,0,0,1.71673-3.40181,38.27421,38.27421,0,0,0-1.37519-3.985,42.67933,42.67933,0,0,1-2.22756-20.79453,12.73932,12.73932,0,0,1,3.715-7.42673,8.0154,8.0154,0,0,1,8.25275-2.26228c3.19048.84466,4.5933,3.32952,5.18975,6.42025a13.73708,13.73708,0,0,1,.05174,4.65564c-.82254,5.41639-3.01817,7.76247-6.18433,7.30222-2.05321-.29845-3.042-1.71822-3.529-3.55634-.28751-1.08521-.435-2.20853-.62581-3.31809a1.42849,1.42849,0,0,0-.92533-1.29274c-.81509-.254-1.41118.25788-1.90062.85579a2.34677,2.34677,0,0,0-.50969,1.31371c-.3062,4.08615-.37836,8.15181,2.53921,11.49091a3.598,3.598,0,0,1,.84486,2.82853c-.31817,6.37967-.596,12.7614-.90107,19.14174-.17491,3.65914-.49365,7.31559-.53757,10.97569a14.35841,14.35841,0,0,0,7.07311,12.96878C385.79172,205.38252,385.76431,205.3599,383.16112,207.8Z"/>
          <path class="cls-4" d="M333.70261,190.87486c-.61511-10.07994-1.12464-18.42721-1.63349-26.77452-.02859-.469-.06352-.938-.074-1.40748-.01018-.45748-.1463-1.03811.27969-1.29761.63077-.38425,1.03491.21528,1.39914.59991,3.16421,3.34142,6.28655,6.72281,9.4703,10.04533,1.964,2.04966,26.73119.69924,29.07331-.42742a2.70759,2.70759,0,0,0,1.71671-3.40185,38.28955,38.28955,0,0,0-1.3752-3.985,42.67952,42.67952,0,0,1-2.22759-20.79456,12.73935,12.73935,0,0,1,3.715-7.42668,8.01538,8.01538,0,0,1,8.25278-2.2623c3.08589.817,4.49945,3.16839,5.12851,6.11831a13.69753,13.69753,0,0,1-1.25957,9.56847c-1.1268,2.11519-2.76683,2.98859-4.8118,2.69133-2.05321-.29846-3.04195-1.71821-3.52893-3.55632-.28751-1.08523-.435-2.20854-.62586-3.3181a1.42848,1.42848,0,0,0-.92529-1.29276,1.61457,1.61457,0,0,0-1.7303.65718,2.54727,2.54727,0,0,0-.68053,1.51883c-.30576,4.08395-.3763,8.14706,2.53973,11.48442a3.59779,3.59779,0,0,1,.84483,2.82852c-.31814,6.37969-.596,12.76139-.901,19.14176-.175,3.6591-.4937,7.31553-.53758,10.9757a14.35835,14.35835,0,0,0,7.07309,12.96872c2.90717,1.85377,2.8798,1.83115.27658,4.27119-4.75644,4.45829-33.13534,9.33929-39.688,10.39391a23.90147,23.90147,0,0,1-6.73177.10508,1.42459,1.42459,0,0,1-1.48641-1.58167c-.13363-2.4388-.37883-4.87137-.52035-7.30987C334.34258,202.65322,333.98057,195.89728,333.70261,190.87486Z"/>
        </g>
      </g>
      <g id="anchor2">
        <path class="cls-3" d="M134.68559,182.77114c.94951,1.78438.89393,2.08467-.576,3.46572-1.1899,1.11795-2.41416,2.20206-3.55991,3.36358a5.59794,5.59794,0,0,1-5.81464,1.59949,2.19433,2.19433,0,0,0-2.48382.65791c-.28684.31395-.86244.35111-1.28507.55818a3.73457,3.73457,0,0,0-.9644.61087c-3.04491,2.94527-6.09428,5.88672-9.08037,8.8909-.33892.341-.25277,1.07537-.44271,1.59867-.62877,1.73232.339,2.711,1.64019,3.51139a5.74259,5.74259,0,0,0,5.04738.838,1.82235,1.82235,0,0,0,1.39511-2.06159,4.18665,4.18665,0,0,1,1.11673-2.48834,16.837,16.837,0,0,1,2.80883-2.40338,4.45849,4.45849,0,0,1,1.3564-.43929l.2106.4263c.8145-.864,1.62432-1.73246,2.44517-2.59038.53862-.563,1.063-.71142,1.67342-.03358.7078.786,1.48151,1.51316,2.23486,2.25751.69728.68893.57936,1.30067-.1282,1.89929-.80622.68209-1.59483,1.385-2.39109,2.07885l.35462.24268a6.61516,6.61516,0,0,1-.82052,1.61682c-.80258.87485-1.75147,1.61338-2.601,2.44782a3.16412,3.16412,0,0,1-3.282.81632,2.27757,2.27757,0,0,0-1.60235.1182c-3.68,2.28942-8.26853,1.18914-11.39931-1.56759a2.28329,2.28329,0,0,0-1.56954-.483,3.62519,3.62519,0,0,1-4.13681-4.20963,2.03759,2.03759,0,0,0-.43978-1.4534c-3.07746-3.39346-3.53171-6.74812-1.48473-10.83563a2.76743,2.76743,0,0,0,.13765-1.82463,2.21212,2.21212,0,0,1,.74506-2.58439c.87556-.736,1.64047-1.60209,2.48511-2.37713.44568-.409.73719-1.41321,1.648-.54585.045.04288.42733-.198.59373-.36521.68439-.68789,1.34744-1.39707,2.01556-2.10106.55045-.58,1.07641-.70211,1.66722-.01971.63489.73332,1.316,1.42721,1.988,2.12764a1.15266,1.15266,0,0,1-.07161,1.83988q-1.038,1.01541-2.076,2.03072l.35227.21323a8.08051,8.08051,0,0,1-.74161,1.68058c-.62725.84769-1.42839,1.56543-2.0715,2.403a2.56778,2.56778,0,0,1-2.89359,1.08053,1.25953,1.25953,0,0,0-1.60429.77477c-1.0172,1.9264.07238,5.72161,1.964,6.772a6.19209,6.19209,0,0,0,3.68273-.5144c3.16625-3.07336,6.52-5.98684,9.38452-9.32021,1.038-1.20793,2.51331-2.7612,1.92761-4.9979-.42072-1.6066.57944-2.97261,1.708-4.10767,1.33761-1.34538,2.69351-2.67279,4.05274-3.99642,1.51585-1.47615,1.92123-1.4884,3.675-.06948,1.16544-1.08522,2.36925-2.16429,3.52267-3.29476.78-.76448,1.426-.87864,2.21377.02286,1.01524,1.16174,2.11453,2.25191,3.20621,3.34435a1.21108,1.21108,0,0,1-.06223,2.02436C137.11777,180.51968,135.89553,181.65771,134.68559,182.77114Zm1.52836-4.50981-2.17449-2.15287-3.3637,3.17164,2.09792,2.1623Zm-8.90778,9.14173,2.90039-2.78569-.78615-.85795a11.49718,11.49718,0,0,1-1.74672,1.49921c-.34162.19454-.90758-.00469-1.37234-.02629a2.07771,2.07771,0,0,1,1.10147-2.38955c.69175-.61633.56835-1.065-.272-1.46347l-2.82594,2.74776Zm.04226,12.99452a10.42718,10.42718,0,0,0-1.3363,1.46713c-.10121.16326.246.60448.38805.91856l1.85386-1.42Zm-19.2674-15.436.23965.43617a4.851,4.851,0,0,0,1.24236-.66466c.19956-.194.13669-.65792.19164-1.00064l-.4158-.13012Z"/>
      </g>
      <path class="cls-14" d="M214.56723,220.702a6.37139,6.37139,0,0,1-6.64059-6.25938c-.03651-3.29043,3.24884-6.49474,6.629-6.46549a6.53784,6.53784,0,0,1,6.54356,6.41414A6.30111,6.30111,0,0,1,214.56723,220.702Z"/>
    </g>
  </g>
</svg>
