<?xml version="1.0" encoding="utf-8"?>
<!-- Generator: Adobe Illustrator 26.3.1, SVG Export Plug-In . SVG Version: 6.00 Build 0)  -->
<svg version="1.1" id="Layer_1" xmlns="http://www.w3.org/2000/svg" xmlns:xlink="http://www.w3.org/1999/xlink" x="0px" y="0px"
	 width="515.5px" height="361px" viewBox="0 0 515.5 361" style="enable-background:new 0 0 515.5 361;" xml:space="preserve">
<style type="text/css">
	.st0{display:none;fill:#DF005E;}
	.st1{fill:none;stroke:#273027;stroke-width:5;stroke-linecap:round;stroke-miterlimit:10;}
	.st2{opacity:0.85;fill:none;stroke:#273027;stroke-width:4;stroke-linecap:round;stroke-miterlimit:10;enable-background:new    ;}
	.st3{fill:#273027;}
	.st4{fill:#A6A099;}
	.st5{fill:#F0A518;}
	.st6{fill:#FDFDFD;}
	.st7{opacity:0.88;fill:#FFFFFF;enable-background:new    ;}
	.st8{opacity:0.4;fill:#FFFFFF;enable-background:new    ;}
	.st9{fill:#CFFF18;stroke:#273027;stroke-width:4;stroke-miterlimit:10;}
	.st10{fill:#406C61;}
	.st11{fill:#FFFFFF;}
	.st12{fill:#273027;stroke:#273027;stroke-miterlimit:10;}
	.st13{fill:#A6A099;stroke:#273027;stroke-miterlimit:10;}
	.st14{stroke:#273027;stroke-miterlimit:10;}
	.st15{fill:#D1991C;stroke:#273027;stroke-width:4;stroke-miterlimit:10;}
</style>
<rect x="-134.2" y="-109.5" class="st0" width="832.6" height="598.8"/>
<g id="Layer_2_00000006680309986027516550000017884049898927488161_">
	<g id="Layer_1-2">
		<g>
			<path class="st1" d="M164.1,220.4c-10.4-6.8-26.1-15.1-41.2-10.1c-22.6,7.6-13.5,43.9-55.3,53.4c-10.4,2.4-27.9,4-59.2-16.7"/>
			<path class="st2" d="M177.9,193.8c-23.8,23.5-52.3,41.5-83.7,52.9C64.7,257.4,33.3,262,2,260.1"/>
			<g>
				<g>
					<path class="st3" d="M510.4,100.5c-3-10.8-11.1-16.2-21.3-16.4c-3.3-0.1-6.6-0.5-9.9-0.5c-1.9,0-2.6-0.7-2.7-2.6
						c-0.3-7.9-3-16.2,4.4-22.6c0.4-0.5,0.7-1.1,0.9-1.8c4.6-10.4,3.4-20.4-3.6-29.1c-6.8-8.6-16.3-11.6-27.2-10.1
						c-2.4,0.3-4.6,1.6-6.8-1.7c-11.7-17.2-37.9-15.4-47.6,3.1c-1.1,2.1-2.2,3.1-4.7,3.4c-10.3,1.3-17.6,6.8-20.8,16.9
						c-3,9.4,0.2,17.3,7.1,24c1.5,1.5,2.5,2.9,2.2,5.2c-1.6,12.6-3.1,25.2-4.6,37.8c0,0.1,0,0.2,0,0.3c0.1,1.4-0.1,2.7-0.5,4.1
						c0,0.4-0.1,0.8-0.2,1.2c-0.1,0.8-0.3,1.6-0.4,2.4c-0.8,6.5-0.6,13-1.3,19.5c-0.7,6.7-2,12.5-2.7,18.2c-0.8,6.9-1.3,14-3.7,20.5
						c-0.4,1-0.7,2-1,3.1c-0.6,4.5-1.2,9-0.9,13.6c0.8,9.7,8.2,17.2,17.9,17.3c26.6,0.2,53.3,0.3,80,0c13.2-0.1,20.1-7.3,20.2-20.2
						c0-3.4,1.3-4.6,4.4-5.3c13.6-3.1,22.6-11.5,25.5-25.1C517.3,137.2,515.5,118.6,510.4,100.5z M385.4,110.5
						c0.6-4.9,1.3-9.9,1.8-14.9c0.3-3.3,2.7-2.8,4.8-2.8c17.8,0.2,35.6,0.4,53.4,0.6c6.2,0.1,12.3,0.2,18.5,0c3.1-0.1,4,1.1,4.2,4
						c1,17.6,2,35.2,3,52.8c0.6,11,1.4,21.9,2,32.9c0.5,10.1-2,12.6-11.8,12.6c-12.3,0-24.7,0-37,0l0,0.1h-38.5
						c-7.7,0-11.4-3.4-10.6-11c1.3-12.7,3.3-25.4,4.9-38.1 M389.2,78.8c0.5-2.8,0.2-6,1.4-8.3c1.4-2.6,4.9-0.4,7.3-1.1
						c6.7-2,14-1.7,20.5,1.1c7.8,3.2,16.1,0.9,23.5-3.1c2.3-1.4,5.1-1.6,7.5-0.4c4.3,1.8,8.8,3.1,13.6,2.8c2.3-0.1,3,0.9,2.9,2.9
						c0,0.2,0,0.3,0,0.5c0.9,10,0.9,10-9.1,10.1c-9.6,0.1-19.3,0-28.9,0l-33.9,0.4C390.2,83.7,388.4,82.9,389.2,78.8L389.2,78.8z
						 M472.5,52.9c-2.4,4.2-5.9,6.7-11.4,6.3c-3.4,0.3-6.7-1.4-10.1-2.8c-4.5-1.8-8.7-1.9-12.7,1c-3.7,2.6-8.1,3.8-12.4,4.6
						c-3.3,0.6-6.7-1.3-9.5-3c-4.7-2.9-8.9-4-14.2-1c-4.4,2.5-9.7,2-14.4-0.5c-6.3-3.4-9.1-10.7-6.6-16.9c2.7-6.6,9.6-9.8,16.8-7.8
						c4.3,1.2,6.4,0,7.1-4.2c2.2-13.5,16.7-19.3,27.9-11.3c2,1.5,3.5,3.6,4.1,6.1c1.8,6.7,4,7.9,10.3,5.2c7.4-3.2,14.3-2.4,20.6,2.4
						C474.6,36.2,476.6,45.5,472.5,52.9L472.5,52.9z M479.4,121l0-9.1c3.8-0.8,8.8,1.7,9.5,5.8c0.2,1.8,0.4,3.6,0.5,5.4
						c0.5,7.1,0.7,14.2,0.5,21.4c-0.1,3.3-1.1,6.1-4.1,8c-2.8,1.7-4.3,1.2-4.5-2.2C480.5,140.5,479.9,130.7,479.4,121L479.4,121z
						 M504.8,151.7c-1.9,10.5-8.2,18-19.3,20.5c-2.8,0.6-3.4,0-3.7-2.7c-0.5-4.5,0.3-6.9,5.4-8.5c7.3-2.2,11-8.3,11.6-15.9
						c0.3-4,0.1-8,0.1-12.5c-0.4-4.1,0-8.7-0.7-13.4c-1.6-11.3-4.8-14.7-15.9-16c-3.6-0.3-6.1-3.5-5.8-7.1c0.1-0.6,0.2-1.2,0.4-1.8
						c0.5-1.5,1.6-1.5,2.8-1.5c3.8,0.1,7.6,0.4,11.4,0.9c7.1,1.2,10.5,6.7,11.8,12.8C505.9,121.5,507.6,136.6,504.8,151.7
						L504.8,151.7z"/>
					<path class="st3" d="M299.4,267.9c9.6-0.7,18.2-1.3,26.8-2c6.9-0.5,11.9-5.3,11.9-12.3c-0.1-7.5-0.7-14.9-1.2-22.4
						c-1.2-17.9-2.5-35.8-3.9-53.7c0-0.3,0-0.6,0-0.9c-0.3-1.4-0.5-2.8-0.4-4.2l0.3-2.2c-0.2-1.3-0.4-2.6-0.5-3.9
						c-0.3-1.6-0.4-3.2-0.6-4.9c-0.2-2.1-0.2-4.2,0-6.2c-0.3-5.7-0.3-11-1.6-15.6c-0.7-2.6-0.8-5.4-0.4-8.1
						c-1-14.5-2.2-28.9-3.2-43.4c-1.1-15.4-1.9-30.8-3-46.2c-0.7-9.9-1.3-19.9-2.4-29.8c-0.7-5.7-4.4-8.5-9.8-8.6
						c-33.8-0.8-67.5-1.5-101.3-2.3c-11.1-0.3-22.3-1.1-33.4-1c-7.8,0.1-15.8-1.7-23.5,2.1c-19.5,9.7-39.2,19-58.8,28.5
						c-12,5.9-13.5,9.3-12.5,22.9c1.4,18.4,2.1,36.8,3.3,55.2c1.1,17.7,2.4,35.5,3.4,53.2l5.7,81.9c0,7.6,1.6,14.3,1.8,21.2
						c0.1,2.8,0.4,5.6,1.2,8.4c1.4,5.2,6.4,9.1,11.4,8.6c13.2-1.1,26.4-2.4,39.6-3.6c10.6-1,21.1-2,31.7-3.1c2.2-0.2,3.5,0,4.1,0.9
						c10.4-2.8,21.1-3.4,31.9-3c0.6-0.1,1.2-0.1,1.7-0.1c10.8-0.8,21.5-1.8,32.3-2.2c5.1-0.2,10.2-1.6,15.2,0.5
						c1.8-0.8,3.7-1.2,5.6-1.2c3.5,0,6.9-0.1,10.4-0.3c3.2-0.5,6.4-0.9,9.7-1.1c1.9-0.1-0.3-1,1.5-1 M165.8,265.7
						c-8.3,0.6-16.5,1.8-24.7,2.6c-9.4,0.9-18.9,1.6-28.3,2.5c-4.3,0.4-6.7-0.6-6.3-5.6c0.3-2.8-1-6.1,0.2-8.3l-8.2-91.6
						c-1.1-21-2.1-41.3-3.3-61.5c-1.1-18.3-2.3-36.5-3.7-54.7c-0.3-4,1.3-6.2,4.6-7.8c17-8,33.9-16.2,50.9-24.2
						c6.2-2.9,7.7-1.9,8,4.8c1.4,30.2,3.3,60.4,5.8,90.6c1.1,13.6,1.3,27.2,2.3,40.8c1.6,22.7,2.4,45.5,4.6,68.2
						c1.2,12.9,1.6,25.9,2.4,38.8C170.4,263.5,169.7,265.4,165.8,265.7L165.8,265.7z M324.3,254.9c-23.9,1.4-47.7,3.7-71.6,4.9
						c-22.1,1.1-44.1,2.8-66.1,4.6c-4.8,0.4-6.2-1.4-6.4-5.7c-1.2-21.4-2.6-42.8-4-64.2c-1.5-21.6-3.2-43.1-4.6-64.7
						c-0.9-14.3-1.4-28.5-2.3-42.8c-1-17.6-2.2-35.2-3.4-52.7c-0.4-6.5-0.8-12.9-1.3-19.4c-0.3-3.4,1.4-4.4,4.5-4.3
						c5.8,0.1,11.7,0,17.5,0l0,0.3c32.8,0.8,65.6,1.4,98.3,2.5c7.1,0.2,14.3,0.8,21.4,0.6c4.1-0.1,5.8,1.4,6,5.3
						c1.3,19.6,2.6,39.1,4,58.7c1.8,24.9,3.8,49.7,5.6,74.6c0.9,12.9,1.5,25.9,2.4,38.8c1.2,17.9,2.5,35.8,3.7,53.7
						c0.1,1.8,0.3,3.6,0.4,5.5C328.5,253.2,327.4,254.7,324.3,254.9z"/>
					<path class="st4" d="M186.3,10.7c32.8,0.8,65.6,1.4,98.3,2.5c7.1,0.2,14.3,0.8,21.4,0.6c4.1-0.1,5.8,1.4,6,5.3
						c1.3,19.6,2.6,39.1,4,58.7c1.8,24.9,3.8,49.7,5.6,74.6c0.9,12.9,1.5,25.9,2.4,38.8c1.2,17.9,2.5,35.8,3.7,53.7
						c0.1,1.8,0.3,3.6,0.4,5.5c0.2,2.8-1,4.2-4,4.4c-23.9,1.4-47.7,3.7-71.6,4.9c-22.1,1.1-44.1,2.8-66.1,4.6
						c-4.8,0.4-6.2-1.4-6.4-5.7c-1.2-21.4-2.6-42.8-4-64.2c-1.5-21.6-3.2-43.1-4.6-64.7c-0.9-14.3-1.4-28.5-2.3-42.8
						c-1-17.6-2.2-35.2-3.4-52.7c-0.4-6.5-0.8-12.9-1.3-19.4c-0.3-3.4,1.4-4.4,4.5-4.3c5.8,0.1,11.7,0,17.5,0L186.3,10.7z
						 M211.8,199.7c4.8-0.1,8.3-3.5,8.3-8c-0.1-4.5-3.8-8.1-8.3-8.1c-4.3,0-8.4,4-8.4,8.2c0.1,4.5,3.7,8,8.2,7.9
						C211.6,199.7,211.7,199.7,211.8,199.7z M214.2,222.7c4.8-0.1,8.2-3.4,8-8.1c-0.1-4.5-3.8-8-8.3-7.9c-4.4,0.1-7.8,3.7-7.9,8
						C206,219.5,209.4,222.8,214.2,222.7L214.2,222.7z M216.1,245.8c5.2,0.1,8.2-2.7,8.3-7.7c0.2-4.4-3.3-8.1-7.6-8.2
						c-0.1,0-0.2,0-0.4,0c-4.5,0.2-8.1,3.8-8.2,8.3C208.2,242.8,211.4,245.8,216.1,245.8L216.1,245.8z"/>
					<path class="st4" d="M98.5,165.3c-1.1-21-2.1-41.3-3.3-61.5c-1.1-18.3-2.3-36.5-3.7-54.7c-0.3-4,1.3-6.2,4.6-7.8
						c17-8,33.9-16.2,50.9-24.2c6.2-2.9,7.7-1.9,8,4.8c1.4,30.2,3.3,60.4,5.8,90.6c1.1,13.6,1.3,27.2,2.3,40.8
						c1.6,22.7,2.4,45.5,4.6,68.2c1.2,12.9,1.6,25.9,2.4,38.8c0.2,3.3-0.5,5.2-4.4,5.5c-8.3,0.6-16.5,1.8-24.7,2.6
						c-9.4,0.9-18.9,1.6-28.3,2.5c-4.3,0.4-6.7-0.6-6.3-5.6c0.3-2.8-1-6.1,0.2-8.3 M146.3,81.7c0.2-4-3.4-6.6-7.7-4.8
						c-8.2,3.5-16.3,7.3-24.4,11.2c-3.6,1.7-4,4.9-2.6,8c1.3,2.9,4,3,6.8,1.7c7.8-3.5,15.8-6.9,23.6-10.4
						C144.4,86.3,146.2,84.5,146.3,81.7z M147.1,106.2c0.2-2.8-2-5.2-4.7-5.4c-0.9-0.1-1.7,0.1-2.5,0.5c-8.2,3.5-16.4,7.1-24.6,10.7
						c-3.3,1.5-5.1,4.1-3.7,7.6c1.4,3.7,4.4,3.9,7.8,2.4c7.7-3.4,15.5-6.6,23.3-9.9C145.1,111.1,146.9,108.9,147.1,106.2z
						 M114.7,73.3c9.9-3.3,19.3-7.6,28.3-13c2.3-1.4,2.3-4.7,0.6-7.2c-1.3-1.8-2.9-2.7-5.1-1.7c-8.7,4-17.4,8-26.1,12.2
						c-2.5,1.2-3.2,3.7-2.6,6.3C110.3,72.4,112,73.4,114.7,73.3z"/>
					<path class="st5" d="M385.4,110.5c0.6-4.9,1.3-9.9,1.8-14.9c0.3-3.3,2.7-2.8,4.8-2.8c17.8,0.2,35.6,0.4,53.4,0.6
						c6.2,0.1,12.3,0.2,18.5,0c3.1-0.1,4,1.1,4.2,4c1,17.6,2,35.2,3,52.8c0.6,11,1.4,21.9,2,32.9c0.5,10.1-2,12.6-11.8,12.6
						c-12.3,0-24.7,0-37,0l0,0.1h-38.5c-7.7,0-11.4-3.4-10.6-11c1.3-12.7,3.3-25.4,4.9-38.1 M413.8,170.4c0.1-3.7-2.8-6.7-6.4-6.8
						c-3.5,0-7,3.2-6.7,6.6c0.3,3.6,2.3,6.2,6.2,6.5c3.5,0.3,6.6-2.4,6.9-5.9C413.8,170.6,413.8,170.5,413.8,170.4z M450.4,159.3
						c-0.4-3.2-2.3-5.5-6.4-5.4c-4,0.1-5.9,2.7-6.3,6.3c-0.3,3.2,3,6.4,6.3,6.4C447.6,166.7,450.5,163.7,450.4,159.3z M417.5,131.7
						c-3.4,0-6.3,2.7-6.4,6.1c-0.1,3.4,2.6,6.2,6,6.3c0.1,0,0.1,0,0.2,0c3.4-0.2,6.1-3.2,5.9-6.6C423,134.5,420.6,132,417.5,131.7
						L417.5,131.7z M447,112.5c-3.7,0.3-5.7,2.4-5.8,5.8c-0.1,3.7,1.9,6.2,5.7,6.2c3,0.2,5.6-2.1,5.8-5.1c0-0.2,0-0.4,0-0.5
						C452.7,115.3,450.5,113.1,447,112.5L447,112.5z M408.1,109.8c-2,0.3-3.1,1.5-3,3.4c0.1,2.2,1.4,3.4,3.6,3.1
						c1.9-0.2,2.8-1.6,2.6-3.6c0-1.7-1.4-3-3-3C408.2,109.8,408.1,109.8,408.1,109.8z M455.3,182.6c0-2-0.9-3.2-2.9-3.2
						c-1.9,0-3.2,1-3.2,3c0,1.9,0.9,3.2,2.9,3.2c1.5,0.2,3-0.9,3.2-2.4C455.3,183,455.3,182.8,455.3,182.6L455.3,182.6z"/>
					<path class="st6" d="M461.1,59.2c-3.4,0.3-6.7-1.4-10.1-2.8c-4.5-1.8-8.7-1.9-12.7,1c-3.7,2.6-8.1,3.8-12.4,4.6
						c-3.3,0.6-6.7-1.3-9.5-3c-4.7-2.9-8.9-4-14.2-1c-4.4,2.5-9.7,2-14.4-0.5c-6.3-3.4-9.1-10.7-6.6-16.9c2.7-6.6,9.6-9.8,16.8-7.8
						c4.3,1.2,6.4,0,7.1-4.2c2.2-13.5,16.7-19.3,27.9-11.3c2,1.5,3.5,3.6,4.1,6.1c1.8,6.7,4,7.9,10.3,5.2c7.4-3.2,14.3-2.4,20.6,2.4
						c6.8,5.1,8.8,14.4,4.7,21.9C470.1,57.1,466.5,59.6,461.1,59.2z"/>
					<path class="st7" d="M393.9,83.6c-3.8,0.1-5.6-0.7-4.8-4.8c0.5-2.8,0.2-6,1.4-8.3c1.4-2.6,4.9-0.4,7.3-1.1
						c6.7-2,14-1.7,20.5,1.1c7.8,3.2,16.1,0.9,23.5-3.1c2.3-1.4,5.1-1.6,7.5-0.4c4.3,1.8,8.8,3.1,13.6,2.8c2.3-0.1,3,0.9,2.9,2.9
						c0,0.2,0,0.3,0,0.5c0.9,10,0.9,10-9.1,10.1c-9.6,0.1-19.3,0-28.9,0"/>
					<path class="st8" d="M499,132.6c-0.4-4.1,0-8.7-0.7-13.4c-1.6-11.3-4.8-14.7-15.9-16c-3.6-0.3-6.1-3.5-5.8-7.1
						c0.1-0.6,0.2-1.2,0.4-1.8c0.5-1.5,1.6-1.5,2.8-1.5c3.8,0.1,7.6,0.4,11.4,0.9c7.1,1.2,10.5,6.7,11.8,12.8
						c3.1,14.8,4.7,30,1.9,45c-1.9,10.5-8.2,18-19.3,20.5c-2.8,0.6-3.4,0-3.7-2.7c-0.5-4.5,0.3-6.9,5.4-8.5
						c7.3-2.2,11-8.3,11.6-15.9C499.2,141.1,499,137.1,499,132.6z"/>
					<path class="st3" d="M257.7,194.3c-6.7,1-13.6,0.4-20.3,1.4c-2.9,0.2-5.7,0.2-7.3-2.9c-2.1-4,0.1-7.9,5-8.3
						c15.7-1.3,31.5-2.4,47.2-3.6c0.5,0,1-0.1,1.5-0.1c4.7,0,7.8,2.8,7.2,6.8"/>
					<path class="st3" d="M287.8,226.7c0.5,0,1-0.1,1.5-0.1c3.8-0.3,6.6,0.9,7.1,5.2c0.5,4.5-2.3,6.4-6.2,6.7
						c-15.9,1.2-31.8,2.3-47.7,3.3c-3.9,0.3-7.1-0.5-7.3-5.3c-0.3-4.7,2.4-5.8,6.5-6.1C257,229.3,272.4,228,287.8,226.7z"/>
					<path class="st3" d="M288.1,203.5c3.4,0,5.2,2,5.3,5.3c0.1,3.3-1.6,5.1-5,5.7c-16.5,2.8-33.2,1.8-49.8,3.4
						c-3.9,0.4-6.5-1.3-6.7-4.9c-0.3-3.6,2.3-5.8,5.9-6.2c6.1-0.5,12.3-1.1,18.4-1.1"/>
					<path class="st9" d="M211.9,198c-3.5,0.1-6.5-2.6-6.6-6.1c0-0.1,0-0.1,0-0.2c0-3.3,3.2-6.5,6.6-6.5c3.6,0,6.5,2.8,6.5,6.4
						c0,3.5-2.8,6.3-6.3,6.3C212.1,198,212,198,211.9,198z"/>
					<path class="st3" d="M214.3,222.7c-4.8,0.1-8.2-3.2-8.1-7.9c0-4.5,3.7-8.1,8.1-8c4.4,0,7.9,3.5,8,7.9
						C222.5,219.3,219.2,222.6,214.3,222.7z"/>
					<path class="st3" d="M216.3,245.8c-4.8,0-7.9-3.1-7.9-7.6c0.1-4.5,3.7-8.2,8.2-8.3c4.4,0,8,3.5,8,7.9c0,0.1,0,0.2,0,0.4
						C224.5,243.2,221.5,245.9,216.3,245.8z"/>
					<path class="st3" d="M146.3,81.7c-0.1,2.8-1.9,4.6-4.2,5.7c-7.8,3.5-15.7,6.9-23.6,10.4c-2.8,1.3-5.5,1.2-6.8-1.7
						c-1.4-3.1-0.9-6.3,2.6-8c8.1-3.8,16.1-7.7,24.4-11.2C142.9,75.1,146.5,77.6,146.3,81.7z"/>
					<path class="st3" d="M147.1,106.2c-0.3,2.6-2,4.9-4.5,5.9c-7.8,3.3-15.6,6.5-23.3,9.9c-3.4,1.5-6.4,1.3-7.8-2.4
						c-1.3-3.5,0.4-6.1,3.7-7.6c8.2-3.6,16.4-7.2,24.6-10.7c2.5-1.2,5.5-0.1,6.7,2.4C147,104.5,147.2,105.4,147.1,106.2z"/>
					<path class="st3" d="M114.7,73.3c-2.6,0.1-4.4-1-5-3.4c-0.6-2.6,0.1-5.1,2.6-6.3c8.6-4.2,17.4-8.1,26.1-12.2
						c2.2-1,3.9-0.1,5.1,1.7c1.7,2.6,1.7,5.8-0.6,7.2C134,65.7,124.5,70,114.7,73.3z"/>
					<path class="st3" d="M413.8,170.4c-0.1,3.5-3,6.3-6.6,6.3c-0.1,0-0.2,0-0.3,0c-4-0.3-5.9-2.9-6.2-6.5c-0.3-3.4,3.3-6.6,6.7-6.6
						C411,163.7,413.9,166.8,413.8,170.4z"/>
					<path class="st3" d="M450.4,159.3c0.1,4.4-2.8,7.4-6.4,7.4c-3.3,0-6.6-3.2-6.3-6.4c0.4-3.6,2.3-6.2,6.3-6.3
						C448,153.8,449.9,156.1,450.4,159.3z"/>
					<path class="st3" d="M417.5,131.7c3.4,0.3,5.9,3.4,5.6,6.8c-0.3,3.1-2.8,5.4-5.9,5.6c-3.4,0-6.2-2.8-6.2-6.2c0-0.1,0-0.1,0-0.2
						C411.3,134.4,414.1,131.7,417.5,131.7z"/>
					<path class="st3" d="M447,112.5c3.5,0.6,5.7,2.8,5.6,6.3c0.1,3-2.2,5.6-5.2,5.7c-0.2,0-0.4,0-0.5,0c-3.8,0-5.7-2.5-5.7-6.2
						C441.3,114.9,443.3,112.8,447,112.5z"/>
					<path class="st3" d="M408.1,109.8c1.7-0.1,3.1,1.2,3.2,2.8c0,0.1,0,0.1,0,0.2c0.2,2-0.7,3.3-2.6,3.6c-2.1,0.3-3.5-0.9-3.6-3.1
						C405,111.2,406,110.1,408.1,109.8z"/>
					<path class="st3" d="M455.3,182.6c0.1,1.6-1.1,2.9-2.6,3c-0.2,0-0.4,0-0.6,0c-2.1,0-3-1.3-2.9-3.2c0-2,1.3-3,3.2-3
						C454.4,179.4,455.3,180.7,455.3,182.6z"/>
					<path class="st10" d="M331.8,160.5c-0.1-1.7-0.1-3.5,0.1-5.2c-0.1-2.2-0.2-4.4-0.3-6.4c-0.1,0-0.2,0-0.3,0
						C331.3,152.9,330.8,157.2,331.8,160.5z"/>
					<path class="st10" d="M377.9,122c-1.3,0.2-2.6,0.5-3.8,1c-0.2,3.5-0.3,7-0.6,10.5c0,0.2,0,0.4-0.1,0.5c1.4-0.7,3-0.9,4.5-0.4
						c3.5,0.9,5.3-1.5,7.2-3.6"/>
				</g>
				<g>
					<path class="st3" d="M226.7,59c-6.6-1.7-13.2-3.2-19.8-5c-7.7-2.1-15.4-4.4-23.1-6.8c-1.8-0.6-3.4-1.4-5-2.4
						c-3.2-1.9-3.8-4.5-2.2-8.1c1.4-3.1,4.1-2.4,6.5-1.7c12.7,3.7,25.4,7.5,38.1,11.1c3.5,0.9,7,1.6,10.5,2c3.9,0.5,6.4-1.6,7-5.5
						c0-1.2,0.1-2.4,0.4-3.5c0.4-0.9,1.4-2.2,2.2-2.2c0.9,0,2.4,1.2,2.5,1.9c0.3,5.3,0.3,10.6-0.1,15.9c-0.2,1.8-2.7,3.3-3.8,4.6
						c0.7,1,2.5,2.5,2.5,4c0.2,8.2-0.3,16.4-5.2,23.4c-7.5,10.7-18,14.9-30.6,12.8c-12.2-2-19.4-10.1-22.7-21.7
						c-1.4-5.1-1.9-10.4-2.5-15.7c-0.4-3.4,1-4.4,4.4-4.3c13.6,0.6,27.3,1.1,40.9,1.7L226.7,59z M232.6,69.5h-5.9
						c-0.1,0.4-0.3,0.8-0.3,1.1c-0.7,6.1-5.2,10.4-10.5,10.3c-4.8-0.1-6.9-3-7.3-10c-0.1-1.7-0.7-2.6-2.4-2.7
						c-4.2-0.1-8.5-0.2-12.7-0.5c-2-0.1-2.6,0.9-2.1,2.6c0.6,2.7,1.5,5.4,2.5,8c4.4,9.9,13.2,14.1,23.6,11.9
						C227.6,88.2,232.9,76.9,232.6,69.5z"/>
					<path class="st3" d="M259,41.1c0.7,6.1,3.8,8.4,9.6,6.4c10.7-3.6,21.2-7.6,31.8-11.6c4.3-1.6,6.3-1.4,7.3,1.1
						c1.9,4.5,0.9,7.9-3.2,9.4c-11.5,4.2-23.1,8.2-34.7,12.2l0,0c-0.5,0.2-0.7,0.7-0.6,1.1c0.1,0.3,0.4,0.6,0.8,0.6
						c0.8,0.1,1.6,0.1,2.4,0.2c9.2,0.3,18.5,0.5,27.7,0.7c4,0.1,5.1,1,5,5c-0.2,8.1-0.5,16.2-5.5,23.1c-6.4,8.7-15.3,12.2-25.8,10.1
						c-10.8-2.2-17.1-9.5-19.6-19.9c-0.8-3.8-1.3-7.7-1.4-11.6c-0.3-5.4,0-6.5,4.2-7.8c0.5-0.1,0.7-0.7,0.6-1.1
						c-0.1-0.2-0.2-0.4-0.4-0.5c-3.3-1.8-4.4-4.6-4.1-8.3c0.2-3.3,0-6.5,0.4-9.8c0.3-1,0.9-1.9,1.7-2.5c0.9-0.6,2.1-0.3,2.6,0.6
						c0.1,0.2,0.2,0.4,0.2,0.6 M263,69.4c-0.5,0-0.9,0.5-0.9,1c0,0,0,0,0,0c0.8,7.6,2.7,14.2,9.6,18.2c5.7,3.3,11.6,3,16.9-0.9
						c5.4-4,7-9.9,7.4-16.2c0-0.5-0.3-0.9-0.8-1c-3.4-0.3-3.4-0.1-4.3,3.1c-0.3,1.1-0.7,2.3-1.3,3.3c-1.8,3.7-5.4,5.9-8.8,5.4
						c-3.7-0.4-6.1-2.8-7.2-6.9c-0.6-2-0.6-4.8-1.9-5.7c-1.5-1-4.2-0.4-6.3-0.5C264.5,69.3,263.9,69.4,263,69.4L263,69.4z"/>
					<path class="st3" d="M245.8,108.9c19-0.7,36.6,10.3,44.2,27.8c2,4.6,1.5,6.6-1.7,8.3c-3.6,1.8-5,1.1-7-2.4
						c-2.5-4.4-4.9-9.1-8.3-12.7c-10.4-10.8-23.4-12.3-37.3-8.8c-13,3.3-24.1,9.6-31.9,21c-2.6,3.7-5.4,3.9-8.4,0.9
						c-2.4-2.5-1.7-4.9,0-7.3c6.1-8.5,14.2-15.4,23.7-19.9C227.7,111.4,236.8,108.7,245.8,108.9z"/>
					<path class="st11" d="M232.6,69.5c0.3,7.4-5,18.7-15.2,20.8c-10.5,2.2-19.2-2-23.6-11.9c-1-2.6-1.9-5.3-2.5-8
						c-0.5-1.7,0.1-2.7,2.1-2.6c4.2,0.2,8.5,0.3,12.7,0.5c1.8,0.1,2.3,0.9,2.4,2.7c0.4,7,2.5,9.8,7.3,10c5.4,0.2,9.9-4.2,10.5-10.3
						c0.1-0.4,0.2-0.8,0.3-1.1L232.6,69.5z"/>
					<path class="st11" d="M262,69.5c1.4-0.1,2.3-0.2,3.2-0.1c2.2,0.1,4.8-0.5,6.3,0.5c1.3,0.9,1.4,3.7,1.9,5.7
						c1.2,4.2,3.6,6.5,7.2,6.9c3.5,0.4,7-1.8,8.8-5.4c0.5-1.1,0.9-2.2,1.3-3.3c1-3.4,0.9-3.5,5.2-3c-0.3,6.7-1.8,12.9-7.4,17.1
						c-5.2,3.9-11.2,4.1-16.9,0.9C264.5,84.5,262.8,77.4,262,69.5z"/>
				</g>
				<path class="st3" d="M282.4,180.7c0.5,0,1-0.1,1.5-0.1c3.8-0.3,6.6,0.9,7.1,5.2c0.5,4.5-2.3,6.4-6.2,6.7
					c-15.9,1.2-31.8,2.3-47.7,3.3c-3.9,0.3-7.4-0.7-7.7-5.5c-0.3-4.7,2.7-5.6,6.9-5.9C251.6,183.3,267,181.9,282.4,180.7z"/>
			</g>
			<g>
				<path class="st3" d="M226.7,59.8c-6.6-1.7-13.2-3.2-19.8-5c-7.7-2.1-15.4-4.4-23.1-6.8c-1.8-0.6-3.4-1.4-5-2.4
					c-3.2-1.9-3.8-4.5-2.2-8.1c1.4-3.1,4.1-2.4,6.5-1.7c12.7,3.7,25.4,7.5,38.1,11.1c3.5,0.9,7,1.6,10.5,2c3.9,0.5,6.4-1.6,7-5.5
					c0-1.2,0.1-2.4,0.4-3.5c0.4-0.9,1.4-2.2,2.2-2.2c0.9,0,2.4,1.2,2.5,1.9c0.3,5.3,0.3,10.6-0.1,15.9c-0.2,1.8-2.7,3.3-3.8,4.6
					c0.7,1,2.5,2.5,2.5,4c0.2,8.2-0.3,16.4-5.2,23.4c-7.5,10.7-18,14.9-30.6,12.8c-12.2-2-19.4-10.1-22.7-21.7
					c-1.4-5.1-1.9-10.4-2.5-15.7c-0.4-3.4,1-4.4,4.4-4.3c13.6,0.6,27.3,1.1,40.9,1.7L226.7,59.8z M232.5,70.3h-5.9
					c-0.1,0.4-0.3,0.8-0.3,1.1c-0.7,6.1-5.2,10.4-10.5,10.3c-4.8-0.1-6.9-3-7.3-10c-0.1-1.7-0.7-2.6-2.4-2.7
					c-4.2-0.1-8.5-0.2-12.7-0.5c-2-0.1-2.6,0.9-2.1,2.6c0.6,2.7,1.5,5.4,2.5,8c4.4,9.9,13.2,14.1,23.6,11.9
					C227.6,89,232.8,77.7,232.5,70.3L232.5,70.3z"/>
				<path class="st3" d="M259,41.9c0.7,6.1,3.8,8.4,9.6,6.4c10.7-3.6,21.2-7.6,31.8-11.6c4.3-1.6,6.3-1.4,7.3,1.1
					c1.9,4.5,0.9,7.9-3.2,9.4c-11.5,4.2-23.1,8.2-34.7,12.2l0,0c-0.5,0.2-0.7,0.7-0.6,1.1c0.1,0.3,0.4,0.6,0.8,0.6
					c0.8,0.1,1.6,0.1,2.4,0.2c9.2,0.3,18.5,0.5,27.7,0.7c4,0.1,5.1,1,5,5c-0.2,8.1-0.5,16.2-5.5,23.1c-6.4,8.7-15.3,12.2-25.8,10.1
					c-10.8-2.2-17.1-9.5-19.6-19.9c-0.8-3.8-1.3-7.7-1.4-11.6c-0.3-5.4,0-6.5,4.2-7.8c0.5-0.1,0.7-0.7,0.6-1.1
					c-0.1-0.2-0.2-0.4-0.4-0.5c-3.3-1.8-4.4-4.6-4.1-8.3c0.2-3.3,0-6.5,0.4-9.8c0.3-1,0.9-1.9,1.7-2.5c0.9-0.6,2.1-0.3,2.6,0.6
					c0.1,0.2,0.2,0.4,0.2,0.6 M262.9,70.2c-0.5,0-0.9,0.5-0.9,1c0,0,0,0,0,0c0.8,7.6,2.7,14.2,9.6,18.2c5.7,3.3,11.6,3,16.9-0.9
					c5.4-4,7-9.9,7.4-16.2c0-0.5-0.3-0.9-0.8-1c-3.4-0.3-3.4-0.1-4.3,3.1c-0.3,1.1-0.7,2.3-1.3,3.3c-1.8,3.7-5.4,5.9-8.8,5.4
					c-3.7-0.4-6.1-2.8-7.2-6.9c-0.6-2-0.6-4.8-1.9-5.7c-1.5-1-4.2-0.4-6.3-0.5C264.5,70.1,263.9,70.2,262.9,70.2L262.9,70.2z"/>
				<path class="st3" d="M245.8,109.7c19-0.7,36.6,10.3,44.2,27.8c2,4.6,1.5,6.6-1.7,8.3c-3.6,1.8-5,1.1-7-2.4
					c-2.5-4.4-4.9-9.1-8.3-12.7c-10.4-10.8-23.4-12.3-37.3-8.8c-13,3.3-24.1,9.6-31.9,21c-2.6,3.7-5.4,3.9-8.4,0.9
					c-2.4-2.5-1.7-4.9,0-7.3c6.1-8.5,14.2-15.4,23.7-19.9C227.7,112.2,236.8,109.5,245.8,109.7z"/>
				<path class="st11" d="M232.5,70.3c0.3,7.4-5,18.7-15.2,20.8c-10.5,2.2-19.2-2-23.6-11.9c-1-2.6-1.9-5.3-2.5-8
					c-0.5-1.7,0.1-2.7,2.1-2.6c4.2,0.2,8.5,0.3,12.7,0.5c1.8,0.1,2.3,0.9,2.4,2.7c0.4,7,2.5,9.8,7.3,10c5.4,0.2,9.9-4.2,10.5-10.3
					c0.1-0.4,0.2-0.8,0.3-1.1L232.5,70.3z"/>
				<path class="st11" d="M262,70.3c1.4-0.1,2.3-0.2,3.2-0.1c2.2,0.1,4.8-0.5,6.3,0.5c1.3,0.9,1.4,3.7,1.9,5.7
					c1.2,4.2,3.6,6.5,7.2,6.9c3.5,0.4,7-1.8,8.8-5.4c0.5-1.1,0.9-2.2,1.3-3.3c1-3.4,0.9-3.5,5.2-3c-0.3,6.7-1.8,12.9-7.4,17.1
					c-5.2,3.9-11.2,4.1-16.9,0.9C264.5,85.3,262.7,78.2,262,70.3z"/>
			</g>
		</g>
		<g id="legs">
			<g>
				<path class="st12" d="M324.2,326.3c-5.3-0.5-10.6-0.2-16.3-0.3c0-0.6,0-1.6-0.1-2.7c-0.3-7.3-0.8-14.5-1-21.8
					c-0.1-3,0-6.1,0.2-9.1c0.2-2.9,0-6-2-8.1c-3.4-3.8-6.6-7.8-9.4-12.1c-1.3-1.9-3.2-3.2-5-4.8c-0.5-0.3-1-0.6-1.5-0.8
					c1.5-0.3,2.9-0.5,4.3-0.7c-2-1.1-3.9-2.2-6-3.1c-0.5-0.1-1-0.2-1.4-0.3c-0.7,0-1.4,0-2.1,0l-2,0.1c-4.4,0.2-8.8,1-13.2,1.7
					c-15,2.2-30.1,3.7-45.3,4.4c-15.1,0.8-30.3,0.9-45.3,3.2c-4.7,0.8-9.2,2-13.7,3.6c-1.1,0.7-2.2,1.4-3.2,2.2
					c1.7-0.1,3.5-0.3,5.2-0.4c1.1-0.1,2.1-0.1,2.7-0.1c-0.7,5.3-1.3,10.6-2,15.8c-2.9,0.1-5.7,0.5-8.6,0.9
					c-7.3,1.6-14.3,7.9-14.6,15.7c-0.2,2.5-0.6,5-1.2,7.4c-0.4,1.7-1.4,3.2-2.8,4.3c-4,3.2-7.8,6.7-11.4,10.4
					c-4,4.4-3.7,10.4,0.3,14.8c3.6,3.9,7.5,7.6,11.4,11.4c1.9,1.8,4.4,2.8,7,2.7c11.3-0.3,22.7-0.7,34-1.1c3.3,0,6-2.6,6-5.9
					c0,0,0,0,0,0c0.5-5.7-2-11.3-6.6-14.7c-3.5-2.7-7.8-4.3-12.2-4.7c0.5-0.4,0.7-0.5,0.9-0.7c5.4-2.9,10.8-6,16.3-8.8
					c1.6-0.8,3.4-1.3,5.2-1.4c6.3-0.4,11.2-3.8,13-9.8c0.6-2.3,2-4.3,3.9-5.7c6.1-5,9.2-11.8,10.9-19.3c1-4.3,1.3-8.7,2-13.4
					c2.6,0.1,5.4,0.3,8.2,0.4c5.3,0.2,9.2,2.7,11.9,7.3c3.2,5.5,7.8,10,13.3,13.2c4,2.2,8.4,3.7,12.7,5.5c0-0.1,0,0.1-0.1,0.4
					c-4.5,8.4-1.2,20,8.7,24.8c2.6,1.3,3.8,2.9,3.8,5.5c0,1.7-0.3,3.3-0.8,4.9c-1.4,4.3-3.1,8.6-2.5,13.3c0.4,3.5,2.8,5.8,6.3,5.7
					c17.9-0.6,35.8-1.2,53.8-1.9c3.4-0.1,6.6-2.9,7.1-6c0.8-4.1-0.1-8.4-2.4-11.9C337.1,330.4,330.9,326.8,324.2,326.3z
					 M210.9,284.9c-1.1,5.8-2.8,11.6-7.6,15.4c-3.4,2.7-5.5,5.3-5.9,9.8c-0.4,3.7-3.2,5.5-7,5.4c-2.9-0.1-5.8,0.7-8.3,2.2
					c-8,4.6-16.2,8.9-24.2,13.4c-1.8,1-3.6,2.2-5.2,3.6c-1.5,1-2,3-1.1,4.5c0.9,1.7,2.4,1.9,4.2,1.6c4.4-0.8,8.8-1.3,13.1-0.3
					c5.2,1.2,9.5,3.7,11.1,9.3c0.5,1.6,0.1,2.1-1.5,2.1c-10,0.3-20.1,0.7-30.1,0.9c-1.7,0-3.3-0.6-4.5-1.7c-3.2-2.9-6.1-6-9-9.1
					c-1.9-2-2.2-3.4-0.6-5.8c1.2-1.7,2.6-3.2,4.1-4.4c2.5-2.1,5.2-3.9,7.6-6.1c1.3-1.1,2.2-2.5,2.9-4.1c1.5-3.6,2.4-7.5,2.5-11.5
					c0-3.7,2.5-6.3,5.6-8c5.3-2.8,10.8-2.6,16.4-0.9c1.4,0.5,2.8,1.2,4.1-0.1c1.3-1.3,0.5-2.6-0.1-3.9c-3.1-6.2-2.3-12.4,0.3-18.5
					c0.6-1.5,2.1-2.6,3.8-2.5c9.1-0.7,18.3-1.5,27.4-2.3c0.9-0.1,1.8-0.1,3.4-0.1C211.6,277.5,211.6,281.2,210.9,284.9z
					 M332.5,346.6c-15.5,0.6-31.1,1.1-46.6,1.7c-2.7,0.1-3.2-0.5-2.4-3.1c0.7-2.2,1.4-4.4,2.2-6.6c1.3-4,1.3-8.2,0-12.2
					c-0.7-2.8-2.8-5.1-5.5-6c-3.6-1.2-6.4-3.9-7.5-7.5c-1.5-4.1,0.2-8.6,4.2-11.9c1.3-1.1,2.3-2.1,1.9-3.9c-0.4-1.8-1.8-2.7-3.4-3.1
					c-2.6-0.6-5.2-1.2-7.7-1.8c-4.9-1.1-9.4-3.5-13.2-6.7c4.7-7.3,11.1-12.3,18.6-16c2.1-1.1,4.7-1.2,6.8-0.1
					c5.4,2.6,9.9,6,12.5,11.7c0.8,1.4,1.9,2.6,3.3,3.5c3.7,2.4,4.8,5.6,3.9,9.8c-0.3,1.7-0.4,3.3-0.2,5c0.5,9.4,1.2,18.8,1.8,28.3
					c0,0.6,0.1,1.2,0.2,1.8c0.5,3.6,2.1,5,5.8,4.6c5.6-0.7,11.2-1.4,16.8-0.6c3.8,0.5,7.2,1.9,9.7,5c0.9,1,1.6,2.2,2.1,3.4
					C336.7,345,335.7,346.5,332.5,346.6L332.5,346.6z"/>
				<path class="st13" d="M212,273.6c-0.4,3.9-0.4,7.6-1.2,11.2c-1.1,5.8-2.8,11.6-7.6,15.4c-3.4,2.7-5.5,5.3-5.9,9.8
					c-0.4,3.7-3.2,5.5-7,5.4c-2.9-0.1-5.8,0.7-8.3,2.2c-8,4.6-16.2,8.9-24.2,13.4c-1.8,1-3.6,2.2-5.2,3.6c-1.5,1-2,3-1.1,4.5
					c0.9,1.7,2.4,1.9,4.2,1.6c4.4-0.8,8.8-1.3,13.1-0.3c5.2,1.2,9.5,3.7,11.1,9.3c0.5,1.6,0.1,2.1-1.5,2.1
					c-10,0.3-20.1,0.7-30.1,0.9c-1.7,0-3.3-0.6-4.5-1.7c-3.2-2.9-6.1-6-9-9.1c-1.9-2-2.2-3.4-0.6-5.8c1.2-1.7,2.6-3.2,4.1-4.4
					c2.5-2.1,5.2-3.9,7.6-6.1c1.3-1.1,2.2-2.5,2.9-4.1c1.5-3.6,2.4-7.5,2.5-11.5c0-3.7,2.5-6.3,5.6-8c5.3-2.8,10.8-2.6,16.4-0.9
					c1.4,0.5,2.8,1.2,4.1-0.1c1.3-1.3,0.5-2.6-0.1-3.9c-3.1-6.2-2.3-12.4,0.3-18.5c0.6-1.5,2.1-2.6,3.8-2.5
					c9.1-0.7,18.3-1.5,27.4-2.3C209.5,273.7,210.4,273.7,212,273.6z M182.7,306.9c0.2,0.6,0.4,1.2,0.7,1.8c0.9,1.3,2.4,1.2,2.8-0.3
					c0.6-2.6,2-4.9,4-6.7c0.4-0.5,0.4-1.2,0.1-1.8c-0.4-0.5-1-0.7-1.7-0.7C186,299.5,182.6,303.7,182.7,306.9L182.7,306.9z"/>
				<path class="st13" d="M254.4,285.5c4.7-7.3,11.1-12.3,18.6-16c2.1-1.1,4.7-1.2,6.8-0.1c5.4,2.6,9.9,6,12.5,11.7
					c0.8,1.4,1.9,2.6,3.3,3.5c3.7,2.4,4.8,5.6,3.9,9.8c-0.3,1.7-0.4,3.3-0.2,5c0.5,9.4,1.2,18.8,1.8,28.3c0,0.6,0.1,1.2,0.2,1.8
					c0.5,3.6,2.1,5,5.8,4.6c5.6-0.7,11.2-1.4,16.8-0.6c3.8,0.5,7.2,1.9,9.7,5c0.9,1,1.6,2.2,2.1,3.4c1.1,2.9,0.1,4.4-3.1,4.5
					c-15.5,0.6-31.1,1.1-46.6,1.7c-2.7,0.1-3.2-0.5-2.4-3.1c0.7-2.2,1.4-4.4,2.2-6.6c1.3-4,1.3-8.2,0-12.2c-0.7-2.8-2.8-5.1-5.5-6
					c-3.6-1.2-6.4-3.9-7.5-7.5c-1.5-4.1,0.2-8.6,4.2-11.9c1.3-1,2.3-2.1,1.9-3.9c-0.4-1.8-1.8-2.7-3.4-3.1c-2.6-0.6-5.2-1.2-7.7-1.8
					C262.7,291.1,258.2,288.8,254.4,285.5z M287.3,291.6c0.2,3.3,2.2,5.8,5,6.3c1.5,0.3,3,0,3.5-1.7c0.5-1.6-0.9-2.3-2.1-2.7
					c-1.8-0.5-3.2-1.8-4-3.5c-0.4-0.5-0.8-0.9-1.3-1.3c-0.4,0.6-0.7,1.2-1,1.9C287.3,290.9,287.3,291.2,287.3,291.6L287.3,291.6z"/>
				<path class="st14" d="M182.7,306.9c-0.1-3.2,3.3-7.4,6-7.8c0.6,0,1.3,0.2,1.7,0.7c0.3,0.6,0.2,1.3-0.1,1.8c-2,1.8-3.3,4.1-4,6.7
					c-0.4,1.5-1.9,1.6-2.8,0.3C183.1,308.1,182.8,307.5,182.7,306.9z"/>
				<path class="st14" d="M287.3,291.6c0-0.3,0-0.7,0.1-1c0.3-0.6,0.6-1.3,1-1.9c0.5,0.4,0.9,0.8,1.3,1.3c0.8,1.7,2.3,2.9,4,3.5
					c1.3,0.4,2.6,1.1,2.1,2.7c-0.5,1.7-1.9,1.9-3.5,1.7C289.5,297.3,287.5,294.9,287.3,291.6z"/>
			</g>
		</g>
		<g id="arm_right">
			<g>
				<path class="st4" d="M148.7,182.3c-0.9-2.4,0.7-5.4,0.7-7.9c-0.2-3.5-0.8-6.9-1.6-10.2c-0.6-2.6-1.7-5.8-1.5-8.5
					c0-0.6,0.2-1.1,0.4-1.6c0-0.2,0-0.3,0-0.5c0,0.3-0.1,0.5-0.3,0.8c-0.8,0.7-1.8,1-2.9,0.9c-2.1-0.4-4.2-1.3-6.3-1.9
					c-8.2-2.5-16.3-2.8-24.4,0.3c-4.6,1.7-8.6,4.9-11.3,9c-0.9,1.2-2.2,2.1-3.7,2.5c-8.1,1.9-13.9,7-18.8,13.3
					c-6.7,8.5-11.5,18.4-14.1,29c-0.5,1.6-1.3,3.1-2.3,4.4c-4.4,5.4-7.4,11.4-7.8,18.5c-0.3,5.8,1.9,10.3,7.5,12.8
					c0.8,0.4,1.4,1.2,1.7,2.1c2.1,16.4,13.2,24.6,27.1,30.3c3,1.1,6.1,2,9.2,2.6c3.6,0.9,5.4,2.7,5.7,6.4c0.5,6.3-4.7,11,0.5,14.6
					c1.7,1.2,1.6,1.9,0.6,4.8c-1.3,3.8,0.5,3.4,0.6,3.6c0.3,0.6,1.8,1.4,1.2,1.2c-1.3,3.6,0.9,5.3,4.9,6c6.1,0.9,11.9-3,13.4-9
					c0.7-2.7,1.4-3.9,4.4-2.7c2.9,1.1,5.8-1.1,6.3-4.7c0.3-2.5,1.5-3.4,3.7-4c3.9-1.1,4.9-2.8,4-6.6c-0.6-2.6-0.5-4.7,1.6-6.8
					c2.2-2.1,1.6-6.1-0.8-8.7c-4.1-4.3-9.5-5.3-15-5.9c-7.9-0.9-7.8-0.8-10.1-8.2c-1.8-5.8-3.8-11.6-6.1-17.2
					c-2.7-6.6-6.9-12.5-12.2-17.3c-0.9-0.8-1.7-2.6-1.3-3.5c0.7-1.1,2-1.8,3.3-1.7c3.1,0.6,6,1.8,9,2.7c1,0.4,2.2,0.6,3.3,0.6
					c12.5-2.8,21.3-10.4,26.2-22.1c2.2-5.2,3.4-10.8,5.2-16.6c0.7,0.8,1.3,1.5,1.9,2.4c-0.1-0.2-0.2-0.4-0.2-0.5
					C149.6,184,149.1,183.2,148.7,182.3z"/>
				<path class="st3" d="M147.6,260.6c-4.2-2.2-9.3-2.9-14-3.9c-2.1-0.4-3.2-1-3.7-3.1c-1.4-5.8-3.1-11.6-4.5-17.4
					c-0.1-1,0.4-2,1.2-2.7c12.2-5.8,19.7-15.8,24.5-28c2.6-6.5,3.1-13.3-0.2-19.8c0-0.1-0.1-0.1-0.1-0.2c-0.1-0.1-0.1-0.2-0.2-0.3
					c-0.6-0.8-1.2-1.6-1.9-2.4c-1.8,5.8-3,11.4-5.2,16.6c-4.9,11.7-13.7,19.3-26.2,22.1c-1.1,0.1-2.2-0.1-3.3-0.6
					c-3-0.9-6-2.1-9-2.7c-1.3,0-2.6,0.6-3.3,1.7c-0.4,0.9,0.5,2.7,1.3,3.5c5.3,4.8,9.4,10.7,12.2,17.3c2.3,5.6,4.3,11.4,6.1,17.2
					c2.3,7.4,2.2,7.3,10.1,8.2c5.5,0.6,11,1.6,15,5.9c2.4,2.6,3,6.5,0.8,8.7c-2.2,2.1-2.2,4.2-1.6,6.8c0.9,3.9-0.1,5.6-4,6.6
					c-2.2,0.6-3.4,1.5-3.7,4c-0.5,3.6-3.4,5.8-6.3,4.7c-3.1-1.1-3.7,0.1-4.4,2.7c-1.6,6.2-4.6,6.5-10.5,5.5c-4-0.7-7.9-4.2-6.6-7.8
					l-4.1-18.8c-0.3-3.7-2-5.5-5.7-6.4c-3.1-0.6-6.2-1.5-9.2-2.6c-13.9-5.7-25-14-27.1-30.3c-0.2-0.9-0.8-1.6-1.7-2.1
					c-5.6-2.5-7.8-7-7.5-12.8c0.4-7.1,3.4-13.1,7.8-18.5c1.1-1.3,1.9-2.8,2.3-4.4c2.6-10.5,7.4-20.4,14.1-29
					c4.9-6.3,10.7-11.3,18.8-13.3c1.5-0.4,2.8-1.2,3.7-2.5c2.7-4.1,6.7-7.3,11.3-9c8.1-3.1,16.3-2.7,24.4-0.3
					c2.1,0.6,4.2,1.5,6.3,1.9c1,0.1,2.1-0.2,2.9-0.9c0.2-0.2,0.3-0.5,0.3-0.8c0-0.2,0-0.4,0-0.5c0-0.5-0.1-1-0.3-1.5
					c-0.5-1.1-1.2-2.1-2.1-2.9c-4.2-4.1-9.8-6.5-15.7-6.7c-7.7-0.6-15.5,0.6-22.6,3.7c-2,1.3-4.3,2.3-6.3,3.7
					c-0.9,0.8-1.8,1.6-2.6,2.6c-0.9,0.7-1.7,1.4-2.4,2.3c-0.3,0.4-0.6,0.7-1,1c-0.2,0.3-0.4,0.5-0.7,0.6
					c-14.3,5.8-23.1,17.3-30.3,30.1c-3.2,5.7-4.7,12.2-7.1,18.4c-0.5,1.3-1.1,2.5-2,3.6c-6.5,8.7-9.3,18.3-7.4,29.1
					c0.8,4.6,3.3,8.7,7,11.6c0.9,0.6,1.6,1.5,2,2.5c4,15.6,14.4,25.4,28.5,32c0.4,0.2,0.8,0.4,1.4,0.7c1.5,0,3,0.4,4.3,1
					c0.9,0.2,1.7,0.4,2.6,0.6c1.4,0.3,2.9,0.4,4.3,0.8c0.4,0.1,0.8,0.3,1.2,0.6c0.1-0.1,0.2-0.1,0.4-0.2c0,0.2,0.1,0.4,0.1,0.6
					c0.3,0.3,0.6,0.8,0.7,1.3c0,0.1,0,0.1,0,0.2c0.3,0.5,0.5,1.1,0.4,1.7c0,1-0.1,2-0.1,3c0,0.3,0.1,0.6,0.1,0.9
					c0,0.2-0.1,0.4-0.2,0.6c-0.2,3.7,0.3,7.4,1.6,10.8l3,4.2c0.4,0.6,1.9,2.4,2.4,3c0.7,1.1,1.5,2.1,2.4,3c3.9,1.2,5.6,2.6,9,3
					c7.3,0.8,9.9,2.5,14.5-2.5c0.3-0.7,0.7-1.4,1.2-2c0.6-1.1,1.7-1.8,2.9-1.8c0.1,0,0.2,0,0.3,0c0.4-0.2,0.9-0.3,1.4-0.3
					c0.1,0,0.2,0,0.3,0c0.1,0,0.2,0,0.3,0c0.1,0,0.1,0,0.2,0c0.1,0,0.2-0.1,0.2-0.1c1.6-1.2,3.2-2.4,4.9-3.4
					c0.2-0.3,0.4-0.6,0.7-0.8c0.2-0.6,0.4-1.1,0.5-1.7c1-3,2.3-4.4,4.5-5.1c0.4-0.5,0.9-0.8,1.5-0.9l0,0c0.3-0.6,0.8-1,1.4-1.3
					c0.5-0.8,0.9-1.7,1.2-2.6c0.4-1.7,0.6-3.5,0.8-5.3c0.2-0.7,0.6-1.3,1-1.8C161.4,279,158.3,266,147.6,260.6z"/>
			</g>
		</g>
		<g id="arm_left">
			<g>
				<path class="st3" d="M400.7,198.7c-0.3-0.2-0.6-0.4-1-0.6c-0.5-0.2-0.9-0.5-1.2-0.9c-2.3-0.1-4.5-0.2-6.8-0.2
					c-1.4-0.1-2.7,0.4-4.2-0.5c-2.3-1.1-3.6-3.4-3.5-5.9c0.1-4,0.5-8.1,0.3-12.1c-0.2-3.5,0.6-7,0.3-10.6c-0.2-2.1,0.5-4.3,0.7-6.5
					c0.1-0.5,0.4-0.9,0.9-1.1c5.7-1.8,8.2-6.5,9.4-11.7c1.7-8-0.3-15.1-6.7-20.6c-1-0.8-4.8-2.5-4.7-3.8c0.1-0.7,0-2.8,0-4.1
					c0-0.5-0.5-4.7-1-4.9c-2.7-0.8-6,2.2-8,1c-0.1,1.2-0.9,5.8-1,7c-0.1,1.9-1,3,3.3,2.1c0.7-0.1-2.6-0.2-3.3-0.1
					c-4.4,0.6-10.7,8-12.4,15c-0.5,2.3,0.6,18.7,0.6,21c0,0.3-8.9,1.8-9,1.8c-0.4,0.2-14.5-14-14.7-14.3c-1.3-1.9-3.4-3.7-4.7-5.6
					c-0.6-0.9-1.1-2.1-1.9-2.7c-1.9-1.3-2-3.1-2.1-5.1c-0.4-7.2-0.9-14.4-1.4-21.6c-0.1-0.9-0.4-1.9,0.2-2.7
					c-3.2,0.1-6.4,0.2-9.6,0.3c2.1,31.6,4.1,63.1,6.2,94.7c0.6,8.6,1,17.2,1.5,25.9c3-0.1,6-0.2,9-0.3c-0.3-1.7,0.5-2.1,2.1-1.9
					c5.3,0.4,33.5-1.7,38.5-3.4c7-2.4,12.5-7.1,17.9-12.1c1.2-1.2,2.3-2.4,3.4-3.7c0.5-0.6,1.3-1.1,1.5-1.8c0.3-0.8,0.8-1.6,1.6-2.1
					c0.2-1.7,0.5-3.5,0.8-5.2C401.3,200.6,401,199.6,400.7,198.7L400.7,198.7z M383.2,207.8c-4.8,4.5-33.1,9.3-39.7,10.4
					c-2.2,0.4-4.5,0.4-6.7,0.1c-0.8,0-1.5-0.6-1.5-1.4c0-0.1,0-0.2,0-0.2c-0.1-2.4-0.4-4.9-0.5-7.3c-0.4-6.8-0.8-13.5-1-18.5
					c-0.6-10.1-1.1-18.4-1.6-26.8c0-0.5-0.1-0.9-0.1-1.4c0-0.5-0.1-1,0.3-1.3c0.6-0.4,1,0.2,1.4,0.6c3.2,3.3,6.3,6.7,9.5,10
					c2,2,26.7,0.7,29.1-0.4c1.4-0.5,2.2-2,1.7-3.4c-0.4-1.4-0.8-2.7-1.4-4c-2.5-6.6-3.2-13.8-2.2-20.8c0.4-2.8,1.7-5.4,3.7-7.4
					c2.1-2.3,5.3-3.2,8.3-2.3c3.2,0.8,4.6,3.3,5.2,6.4c0.3,1.5,0.3,3.1,0.1,4.7c-0.8,5.4-3,7.8-6.2,7.3c-2.1-0.3-3-1.7-3.5-3.6
					c-0.3-1.1-0.4-2.2-0.6-3.3c0-0.6-0.4-1.1-0.9-1.3c-0.8-0.3-1.4,0.3-1.9,0.9c-0.3,0.4-0.5,0.8-0.5,1.3c-0.3,4.1-0.4,8.2,2.5,11.5
					c0.7,0.8,1,1.8,0.8,2.8c-0.3,6.4-0.6,12.8-0.9,19.1c-0.2,3.7-0.5,7.3-0.5,11c-0.2,5.3,2.5,10.3,7.1,13
					C385.8,205.4,385.8,205.4,383.2,207.8z"/>
				<path class="st4" d="M333.7,190.9c-0.6-10.1-1.1-18.4-1.6-26.8c0-0.5-0.1-0.9-0.1-1.4c0-0.5-0.1-1,0.3-1.3
					c0.6-0.4,1,0.2,1.4,0.6c3.2,3.3,6.3,6.7,9.5,10c2,2,26.7,0.7,29.1-0.4c1.4-0.5,2.2-2,1.7-3.4c-0.4-1.4-0.8-2.7-1.4-4
					c-2.5-6.6-3.2-13.8-2.2-20.8c0.4-2.8,1.7-5.4,3.7-7.4c2.1-2.3,5.3-3.2,8.3-2.3c3.1,0.8,4.5,3.2,5.1,6.1c0.8,3.2,0.3,6.6-1.3,9.6
					c-1.1,2.1-2.8,3-4.8,2.7c-2.1-0.3-3-1.7-3.5-3.6c-0.3-1.1-0.4-2.2-0.6-3.3c0-0.6-0.4-1.1-0.9-1.3c-0.7-0.2-1.3,0.1-1.7,0.7
					c-0.4,0.4-0.6,1-0.7,1.5c-0.3,4.1-0.4,8.1,2.5,11.5c0.7,0.8,1,1.8,0.8,2.8c-0.3,6.4-0.6,12.8-0.9,19.1c-0.2,3.7-0.5,7.3-0.5,11
					c-0.2,5.3,2.5,10.3,7.1,13c2.9,1.9,2.9,1.8,0.3,4.3c-4.8,4.5-33.1,9.3-39.7,10.4c-2.2,0.4-4.5,0.4-6.7,0.1
					c-0.8,0-1.5-0.6-1.5-1.4c0-0.1,0-0.2,0-0.2c-0.1-2.4-0.4-4.9-0.5-7.3C334.3,202.7,334,195.9,333.7,190.9z"/>
			</g>
		</g>
		<g id="anchor2">
			<path class="st3" d="M134.7,182.8c0.9,1.8,0.9,2.1-0.6,3.5c-1.2,1.1-2.4,2.2-3.6,3.4c-1.5,1.6-3.7,2.2-5.8,1.6
				c-0.9-0.3-1.9-0.1-2.5,0.7c-0.3,0.3-0.9,0.4-1.3,0.6c-0.4,0.2-0.7,0.4-1,0.6c-3,2.9-6.1,5.9-9.1,8.9c-0.3,0.3-0.3,1.1-0.4,1.6
				c-0.6,1.7,0.3,2.7,1.6,3.5c1.5,1.1,3.3,1.4,5,0.8c0.9-0.2,1.5-1.1,1.4-2.1c0.1-0.9,0.5-1.8,1.1-2.5c0.8-0.9,1.8-1.7,2.8-2.4
				c0.4-0.2,0.9-0.4,1.4-0.4l0.2,0.4c0.8-0.9,1.6-1.7,2.4-2.6c0.5-0.6,1.1-0.7,1.7,0c0.7,0.8,1.5,1.5,2.2,2.3
				c0.7,0.7,0.6,1.3-0.1,1.9c-0.8,0.7-1.6,1.4-2.4,2.1l0.4,0.2c-0.2,0.6-0.5,1.1-0.8,1.6c-0.8,0.9-1.8,1.6-2.6,2.4
				c-0.8,0.9-2.1,1.2-3.3,0.8c-0.5-0.2-1.1-0.1-1.6,0.1c-3.7,2.3-8.3,1.2-11.4-1.6c-0.4-0.4-1-0.5-1.6-0.5c-2,0.3-3.8-1-4.1-3
				c-0.1-0.4-0.1-0.8,0-1.2c0-0.5-0.1-1-0.4-1.5c-3.1-3.4-3.5-6.7-1.5-10.8c0.3-0.6,0.3-1.2,0.1-1.8c-0.4-0.9-0.1-2,0.7-2.6
				c0.9-0.7,1.6-1.6,2.5-2.4c0.4-0.4,0.7-1.4,1.6-0.5c0,0,0.4-0.2,0.6-0.4c0.7-0.7,1.3-1.4,2-2.1c0.6-0.6,1.1-0.7,1.7,0
				c0.6,0.7,1.3,1.4,2,2.1c0.5,0.4,0.6,1.1,0.2,1.6c-0.1,0.1-0.1,0.2-0.2,0.2c-0.7,0.7-1.4,1.4-2.1,2l0.4,0.2
				c-0.2,0.6-0.4,1.2-0.7,1.7c-0.6,0.8-1.4,1.6-2.1,2.4c-0.6,1-1.8,1.4-2.9,1.1c-0.7-0.2-1.4,0.1-1.6,0.8c0,0,0,0,0,0
				c-1,1.9,0.1,5.7,2,6.8c1.3,0.2,2.5,0,3.7-0.5c3.2-3.1,6.5-6,9.4-9.3c1-1.2,2.5-2.8,1.9-5c-0.4-1.6,0.6-3,1.7-4.1
				c1.3-1.3,2.7-2.7,4.1-4c1.5-1.5,1.9-1.5,3.7-0.1c1.2-1.1,2.4-2.2,3.5-3.3c0.8-0.8,1.4-0.9,2.2,0c1,1.2,2.1,2.3,3.2,3.3
				c0.5,0.4,0.7,1.1,0.3,1.7c-0.1,0.1-0.2,0.3-0.4,0.3C137.1,180.5,135.9,181.7,134.7,182.8z M136.2,178.3l-2.2-2.2l-3.4,3.2
				l2.1,2.2L136.2,178.3z M127.3,187.4l2.9-2.8l-0.8-0.9c-0.5,0.6-1.1,1.1-1.7,1.5c-0.3,0.2-0.9,0-1.4,0c-0.2-1,0.2-2,1.1-2.4
				c0.7-0.6,0.6-1.1-0.3-1.5l-2.8,2.7L127.3,187.4z M127.3,200.4c-0.5,0.4-0.9,0.9-1.3,1.5c-0.1,0.2,0.2,0.6,0.4,0.9l1.9-1.4
				L127.3,200.4z M108.1,185l0.2,0.4c0.4-0.2,0.9-0.4,1.2-0.7c0.2-0.2,0.1-0.7,0.2-1l-0.4-0.1L108.1,185z"/>
		</g>
		<path class="st15" d="M214.6,220.7c-3.5,0.1-6.5-2.6-6.6-6.1c0-0.1,0-0.1,0-0.2c0-3.3,3.2-6.5,6.6-6.5c3.6,0,6.5,2.8,6.5,6.4
			c0,3.5-2.8,6.3-6.3,6.3C214.7,220.7,214.6,220.7,214.6,220.7z"/>
	</g>
</g>
</svg>
