<svg id="ACME" xmlns="http://www.w3.org/2000/svg" viewBox="0 0 299.75 283.87"><defs><style>.cls-1{fill:#600205;stroke:#231f20;stroke-miterlimit:10;stroke-width:4px;}</style></defs><path id="A" class="cls-1" d="M177,6c-2.4,4.8-4.4,5.1-6.5,1-1.8-3.6-2.3-3.6-6.8-1C160,8.2,159,11.1,159,19.8c0,11.6-4,17.3-10.5,15.2-2.7-.9-5.1-.8-11.2.4-4.3.8-10.7,1.8-14.3,2.1-9.3.9-31.2,9.8-37,15.1-1.4,1.3-4.2,3.8-6.4,5.6-5.6,4.7-15.2,17.7-20.1,27.3-1.4,2.7-3.7,6.8-5,9a19.65,19.65,0,0,0-2.5,6.6,8.94,8.94,0,0,1-1.5,4.5c-.8,1-1.5,4-1.5,6.5,0,2.9-.6,5.1-1.5,5.9a5.4,5.4,0,0,0-1.5,3.6c0,3.6-2.9,13.7-4.1,14.5-1.7,1-18.7,2.4-26.4,2.1a60.47,60.47,0,0,0-10.2.3c-3.8.7-4.6,3.5-1,3.5,2.6,0,5.1,2.3,6.1,5.6.4,1.2,2.3,2.8,4.6,3.7,3.5,1.3,4,2,4,4.7q0,3-1.8,3.6a37.45,37.45,0,0,0-4.5,2,16.73,16.73,0,0,1-5.3,1.4c-3,0-3.1,1.6-.1,4.1,2,1.6,4.1,1.8,20.2,1.9h18l1.9,6.3c1.8,5.7,7.4,17.5,9.8,20.4.7.9.1,2.4-2.1,5.2a24.25,24.25,0,0,0-3.1,4.4c0,1-8.6,15-13.5,22.2-11,15.9-10.9,15.7-10.9,20.4l-.1,4.6,5.6.2c5,.2,5.9-.1,8.7-2.8,4.2-4.1,6.7-3.6,6.7,1.5s2,5.7,3.8,1.4a40.86,40.86,0,0,1,6.5-8.6c2.7-2.9,5.2-6.3,5.5-7.5,1.2-4.7,3.9-11.3,5.5-13.5l1.8-2.3,4.7,2.6a39,39,0,0,1,7.2,4.7,37.09,37.09,0,0,0,6.7,4.5c14.1,7,17.1,8.3,19.5,8.3a8.71,8.71,0,0,1,5.2,2.5c2.5,2.3,3.2,2.4,22.2,3.1,17.1.6,20,.5,22.9-1a15.07,15.07,0,0,1,4.9-1.6,9.63,9.63,0,0,0,3.9-1.5c1.5-1.1,4-1.5,8.3-1.3l6.1.3,1.5,4c.8,2.2,1.9,5.5,2.4,7.2.7,2.3,1.6,3.3,3,3.3a2.77,2.77,0,0,1,2.5,1.7,63.92,63.92,0,0,0,2.7,6.3l2.2,4.5.3-4.5c.4-7.6,1-9,3.7-9s6.5,3.5,6.5,5.8a31.22,31.22,0,0,0,2.5,6.8,58.48,58.48,0,0,1,3.4,9.5c2.2,9.9,3.4,4,2.8-14.2-.4-13.1-1.8-30.4-3.2-40.2-.5-3.5-.2-4.2,3.5-7.8a62.84,62.84,0,0,0,6.8-8.2,60.23,60.23,0,0,1,5.5-7.1c1.5-1.7,2.7-3.8,2.7-4.7a13,13,0,0,1,1.4-4.6c.8-1.5,2.2-4.6,3.1-6.8s3.5-7.8,5.7-12.3c5.6-11.6,5.7-11.6,30.3-10.8,18.6.6,24.5.1,25.2-2.1.5-1.5-4.1-2.4-12.4-2.5-4-.1-7.7-.7-9-1.5-2.6-1.7-11.4-3.8-19.8-4.8-3.3-.4-6.6-1-7.3-1.4-.9-.5-1.3-5-1.6-15.7s-.8-16.1-1.9-18.5a35,35,0,0,1-2.1-8.2c-.6-4.9-2.8-10-5.3-12.6-2.4-2.3-5.9-8.4-6.6-11.3-.4-1.5-3.2-5.4-6.3-8.8-4.4-4.7-6.3-6-8.5-6s-2.9-.5-2.9-2.1c0-5.3-12.2-15-20.4-16.2-2.2-.4-4.6-1.3-5.4-2.1s-2.1-5.8-2.9-11.8c-.8-5.6-2.1-11-2.9-11.9-1-1.1-1.4-4.2-1.4-11.2,0-5.7-.4-9.7-1-9.7S178.12,3.8,177,6ZM139,59.9a4.8,4.8,0,0,1-1.5,3.1,4.29,4.29,0,0,0-1.5,2.2c0,.5-2,3.5-4.3,6.6-5.2,6.8-6.7,9.4-6.7,11.9,0,1.1-1.2,3.5-2.6,5.4-2.2,3-5.5,9.4-9.1,17.9a27.62,27.62,0,0,1-4,5.8,77.76,77.76,0,0,0-5.3,7.6,129.72,129.72,0,0,1-8.4,11.6l-5.9,7.2-7.1-.7c-3.9-.4-9-.6-11.2-.6-5.1.1-5.2-.2-4.4-13.4.6-9.2,1.7-13.9,4.2-18.9a47,47,0,0,0,2.4-6.5,35.9,35.9,0,0,1,4.9-9.5c1.9-2.7,3.5-5.4,3.5-6s2.1-2.9,4.7-5.1,7.3-6.3,10.6-9.1c4.2-3.7,7.3-5.5,10.6-6.2,6.4-1.4,16.4-4.2,17-4.7.2-.3,3.5-.5,7.3-.5C138.22,58,139,58.2,139,59.9Zm52.9,9.3c6,4.4,10,8.6,10.1,10.4s4.7,4.4,7.9,4.4c2.5,0,3.2.5,3.6,2.7a23.46,23.46,0,0,0,2,5.6,13.36,13.36,0,0,1,1.5,4.4c0,.8,1.9,4,4.3,7.1,7.6,10,9.1,13.1,9.3,19.2.1,3,.5,8.3.9,11.6,1,8.2-.6,10.1-8.5,9.8-3-.2-10-.5-15.5-.7s-11-.9-12.2-1.5c-2.3-1.3-3.8-6-2.8-9.1.3-1-.8-6-2.5-11-2.8-8.4-3.1-10.6-3.6-27.4-.4-12.9-1-19.2-2.1-21.5-1.6-3.5-1.1-8.2.9-8.2C185.82,65,188.82,66.9,191.92,69.2Zm-27.7,4.7c.1,2.5.2,10.9.3,18.6s.7,21.6,1.2,31,.8,17.3.4,17.8-10.8.6-23.2.5l-22.4-.3-.3-2.3a8.48,8.48,0,0,1,1.5-5c2.5-3.7,5.2-9.4,5.3-11.1,0-.7,3.2-6,7-11.7s7.4-12.2,7.9-14.3a25,25,0,0,1,3.5-7.7,19.53,19.53,0,0,0,2.6-4.9c0-.6,1.4-2.4,3-4s3-3.3,3-3.7,1.7-3.1,3.7-5.9c3.4-4.5,3.9-4.8,5-3.2C163.42,68.6,164.12,71.4,164.22,73.9Zm61,86.9c.5.5-.5,5.1-2.5,11.1-2.5,7.5-4.8,12-8.3,16.7-2.7,3.5-5.4,6.4-6.1,6.4-2,0-3.4-4.7-3.8-12.2a47.8,47.8,0,0,0-4-17.4c-1.4-3.2-1-4.7,1.5-5.7C204.12,158.7,224.12,159.7,225.22,160.8Zm-73.8.7c20.4.2,19.4-.5,20.6,15.2,1,12.5,2.7,21.1,4.8,23.5,1,1.2,1.2,2.8.8,5-.8,3.8-.8,4.4,0,11.7l.6,5.4-2.7-.7c-1.5-.4-3.2-.3-3.8.2-1.7,1.3-11.1,3.4-13.9,3.1-1.3-.2-5.7.9-9.9,2.5-7.3,2.7-7.6,2.7-12,1.1a77.26,77.26,0,0,0-7.4-2.4,38.33,38.33,0,0,1-10.5-4.6,37.76,37.76,0,0,0-8-3,37.76,37.76,0,0,1-8-3,8.67,8.67,0,0,0-2.7-1.6,45.65,45.65,0,0,1-6-4.4c-10.4-8.6-10.6-9.3-5.2-15.4,1.6-1.9,2.9-3.9,2.9-4.6a4.56,4.56,0,0,1,1.4-2.5c.8-.6,2.3-3.3,3.2-5.8s2.6-5.6,3.7-6.6a16.54,16.54,0,0,0,3.2-5,16.2,16.2,0,0,1,3.3-4.9c2.8-2.5,15.4-4.7,22.7-4C131.82,161,142.12,161.4,151.42,161.5Zm-80,1.1c2.3.9,1.9,3.4-.9,6.9-2,2.5-2.8,2.8-4.2,1.9-1.1-.6-1.9-2.6-2.1-4.7-.3-3.2-.1-3.6,2.5-4a15.66,15.66,0,0,0,3-.6A14.68,14.68,0,0,1,71.42,162.6Z"/></svg>